<?xml version="1.0" encoding="UTF-8" standalone="no"?>
<!-- Created with Inkscape (http://www.inkscape.org/) -->

<svg
   width="770"
   height="80"
   viewBox="0 0 203.72916 21.166667"
   version="1.1"
   id="svg1"
   xml:space="preserve"
   xmlns:xlink="http://www.w3.org/1999/xlink"
   xmlns="http://www.w3.org/2000/svg"
   xmlns:svg="http://www.w3.org/2000/svg"><defs
     id="defs1"><linearGradient
       id="linearGradient115"><stop
         style="stop-color:#c66a3b;stop-opacity:1;"
         offset="0"
         id="stop114" /><stop
         style="stop-color:#6b2f11;stop-opacity:1;"
         offset="1"
         id="stop115" /></linearGradient><linearGradient
       id="linearGradient25"><stop
         style="stop-color:#c66a3b;stop-opacity:1;"
         offset="0"
         id="stop25" /><stop
         style="stop-color:#e2c3b3;stop-opacity:1;"
         offset="1"
         id="stop26" /></linearGradient><linearGradient
       id="linearGradient14"><stop
         style="stop-color:#a15e3a;stop-opacity:1;"
         offset="0"
         id="stop14" /><stop
         style="stop-color:#6b2f11;stop-opacity:1;"
         offset="1"
         id="stop15" /></linearGradient><linearGradient
       id="linearGradient12"><stop
         style="stop-color:#b06542;stop-opacity:1;"
         offset="0"
         id="stop12" /><stop
         style="stop-color:#6b2f11;stop-opacity:1;"
         offset="1"
         id="stop13" /></linearGradient><linearGradient
       id="linearGradient10"><stop
         style="stop-color:#c66a3b;stop-opacity:1;"
         offset="0"
         id="stop10" /><stop
         style="stop-color:#6b2f11;stop-opacity:1;"
         offset="1"
         id="stop11" /></linearGradient><linearGradient
       id="linearGradient6"><stop
         style="stop-color:#c66a3b;stop-opacity:1;"
         offset="0"
         id="stop6" /><stop
         style="stop-color:#6b2f11;stop-opacity:1;"
         offset="1"
         id="stop7" /></linearGradient><linearGradient
       id="swatch3"><stop
         style="stop-color:#000000;stop-opacity:1;"
         offset="0"
         id="stop3" /></linearGradient><linearGradient
       xlink:href="#linearGradient12"
       id="linearGradient49"
       gradientUnits="userSpaceOnUse"
       x1="101.84637"
       y1="96.140839"
       x2="114.47929"
       y2="121.2909" /><linearGradient
       xlink:href="#linearGradient25"
       id="linearGradient50"
       gradientUnits="userSpaceOnUse"
       x1="155.07674"
       y1="60.133568"
       x2="169.75142"
       y2="49.823601" /><linearGradient
       xlink:href="#linearGradient14"
       id="linearGradient51"
       gradientUnits="userSpaceOnUse"
       x1="67.153893"
       y1="101.3872"
       x2="68.835846"
       y2="124.20695" /><linearGradient
       xlink:href="#linearGradient6"
       id="linearGradient52"
       gradientUnits="userSpaceOnUse"
       x1="127.05863"
       y1="94.378853"
       x2="131.50865"
       y2="126.41174"
       gradientTransform="translate(400.38859,-3.9547332)" /><linearGradient
       xlink:href="#linearGradient10"
       id="linearGradient53"
       gradientUnits="userSpaceOnUse"
       x1="77.664345"
       y1="96.869926"
       x2="80.707932"
       y2="124.51938" /><linearGradient
       xlink:href="#linearGradient12"
       id="linearGradient77"
       gradientUnits="userSpaceOnUse"
       x1="101.84637"
       y1="96.140839"
       x2="114.47929"
       y2="121.2909" /><linearGradient
       xlink:href="#linearGradient25"
       id="linearGradient78"
       gradientUnits="userSpaceOnUse"
       x1="155.07674"
       y1="60.133568"
       x2="169.75142"
       y2="49.823601"
       gradientTransform="matrix(0.99731356,-0.06972875,0.07695062,0.99731356,-5.187848,9.3501327)" /><linearGradient
       xlink:href="#linearGradient14"
       id="linearGradient79"
       gradientUnits="userSpaceOnUse"
       x1="67.153893"
       y1="101.3872"
       x2="68.835846"
       y2="124.20695"
       gradientTransform="matrix(0.97248885,0.22174893,-0.24471566,0.97248885,28.541363,-11.943928)" /><linearGradient
       xlink:href="#linearGradient6"
       id="linearGradient80"
       gradientUnits="userSpaceOnUse"
       x1="127.05863"
       y1="94.378853"
       x2="131.50865"
       y2="126.41174"
       gradientTransform="matrix(0.99727316,-0.07025037,0.07752626,0.99727316,-5.2223458,7.3924585)" /><linearGradient
       xlink:href="#linearGradient10"
       id="linearGradient81"
       gradientUnits="userSpaceOnUse"
       x1="77.664345"
       y1="96.869926"
       x2="80.707932"
       y2="124.51938" /><linearGradient
       xlink:href="#linearGradient12"
       id="linearGradient92"
       gradientUnits="userSpaceOnUse"
       x1="101.84637"
       y1="96.140839"
       x2="114.47929"
       y2="121.2909"
       gradientTransform="matrix(0.99893589,-0.04390276,0.0484498,0.99893589,-2.6518922,3.6910864)" /><linearGradient
       xlink:href="#linearGradient25"
       id="linearGradient93"
       gradientUnits="userSpaceOnUse"
       x1="155.07674"
       y1="60.133568"
       x2="169.75142"
       y2="49.823601"
       gradientTransform="matrix(0.99731098,-0.06976218,0.0769875,0.99731098,-4.6705868,8.242905)" /><linearGradient
       xlink:href="#linearGradient14"
       id="linearGradient94"
       gradientUnits="userSpaceOnUse"
       gradientTransform="matrix(0.97248885,0.22174893,-0.24471566,0.97248885,28.541363,-11.943928)"
       x1="67.153893"
       y1="101.3872"
       x2="68.835846"
       y2="124.20695" /><linearGradient
       xlink:href="#linearGradient6"
       id="linearGradient95"
       gradientUnits="userSpaceOnUse"
       gradientTransform="matrix(0.99727316,-0.07025037,0.07752626,0.99727316,-6.390795,8.2575564)"
       x1="127.05863"
       y1="94.378853"
       x2="131.50865"
       y2="126.41174" /><linearGradient
       xlink:href="#linearGradient10"
       id="linearGradient96"
       gradientUnits="userSpaceOnUse"
       x1="77.664345"
       y1="96.869926"
       x2="80.707932"
       y2="124.51938"
       gradientTransform="matrix(0.98309757,-0.17427956,0.19232984,0.98309757,-19.882937,15.596871)" /><linearGradient
       xlink:href="#linearGradient25"
       id="linearGradient111"
       gradientUnits="userSpaceOnUse"
       gradientTransform="matrix(0.98995362,-0.13459419,0.14853422,0.98995362,-10.855076,18.168794)"
       x1="155.07674"
       y1="60.133568"
       x2="169.75142"
       y2="49.823601" /><linearGradient
       xlink:href="#linearGradient14"
       id="linearGradient112"
       gradientUnits="userSpaceOnUse"
       gradientTransform="matrix(0.97079282,-0.22838375,0.25203766,0.97079281,-18.358328,19.898834)"
       x1="67.153893"
       y1="101.3872"
       x2="68.835846"
       y2="124.20695" /><linearGradient
       xlink:href="#linearGradient6"
       id="linearGradient113"
       gradientUnits="userSpaceOnUse"
       gradientTransform="matrix(0.98983022,-0.13541405,0.14943901,0.98983022,-13.254794,14.846485)"
       x1="127.05863"
       y1="94.378853"
       x2="131.50865"
       y2="126.41174" /><linearGradient
       xlink:href="#linearGradient10"
       id="linearGradient114"
       gradientUnits="userSpaceOnUse"
       gradientTransform="matrix(0.99940218,-0.03291033,0.03631887,0.99940218,-6.5087217,2.5577532)"
       x1="77.664345"
       y1="96.869926"
       x2="80.707932"
       y2="124.51938" /><linearGradient
       xlink:href="#linearGradient115"
       id="linearGradient49-6"
       gradientUnits="userSpaceOnUse"
       x1="101.84637"
       y1="96.140839"
       x2="114.47929"
       y2="121.2909"
       gradientTransform="translate(15.419646,0.10581203)" /><linearGradient
       xlink:href="#linearGradient25"
       id="linearGradient135"
       gradientUnits="userSpaceOnUse"
       gradientTransform="matrix(0.9959195,-0.08590694,0.09480439,0.9959195,-7.3006527,10.687216)"
       x1="155.07674"
       y1="60.133568"
       x2="169.75142"
       y2="49.823601" /><linearGradient
       xlink:href="#linearGradient14"
       id="linearGradient136"
       gradientUnits="userSpaceOnUse"
       gradientTransform="matrix(0.97079282,-0.22838375,0.25203766,0.97079281,-16.930223,19.280907)"
       x1="67.153893"
       y1="101.3872"
       x2="68.835846"
       y2="124.20695" /><linearGradient
       xlink:href="#linearGradient6"
       id="linearGradient137"
       gradientUnits="userSpaceOnUse"
       gradientTransform="translate(400.38859,-3.9547332)"
       x1="127.05863"
       y1="94.378853"
       x2="131.50865"
       y2="126.41174" /><linearGradient
       xlink:href="#linearGradient6"
       id="linearGradient138"
       gradientUnits="userSpaceOnUse"
       gradientTransform="matrix(0.98983022,-0.13541405,0.14943901,0.98983022,-13.254794,14.846485)"
       x1="127.05863"
       y1="94.378853"
       x2="131.50865"
       y2="126.41174" /><linearGradient
       xlink:href="#linearGradient10"
       id="linearGradient139"
       gradientUnits="userSpaceOnUse"
       gradientTransform="matrix(0.99940218,-0.03291033,0.03631887,0.99940218,-7.6103462,2.382977)"
       x1="77.664345"
       y1="96.869926"
       x2="80.707932"
       y2="124.51938" /><linearGradient
       xlink:href="#linearGradient25"
       id="linearGradient149"
       gradientUnits="userSpaceOnUse"
       gradientTransform="matrix(0.9993184,-0.0351404,0.03877992,0.9993184,-4.1300556,3.0699617)"
       x1="155.07674"
       y1="60.133568"
       x2="169.75142"
       y2="49.823601" /><linearGradient
       xlink:href="#linearGradient14"
       id="linearGradient150"
       gradientUnits="userSpaceOnUse"
       gradientTransform="matrix(0.97079282,-0.22838375,0.25203766,0.97079281,-16.930223,19.280907)"
       x1="67.153893"
       y1="101.3872"
       x2="68.835846"
       y2="124.20695" /><linearGradient
       xlink:href="#linearGradient6"
       id="linearGradient151"
       gradientUnits="userSpaceOnUse"
       gradientTransform="translate(400.38859,-3.9547332)"
       x1="127.05863"
       y1="94.378853"
       x2="131.50865"
       y2="126.41174" /><linearGradient
       xlink:href="#linearGradient6"
       id="linearGradient152"
       gradientUnits="userSpaceOnUse"
       gradientTransform="matrix(0.99935708,-0.03412903,0.03766381,0.99935708,-3.4286383,2.5124784)"
       x1="127.05863"
       y1="94.378853"
       x2="131.50865"
       y2="126.41174" /><linearGradient
       xlink:href="#linearGradient10"
       id="linearGradient153"
       gradientUnits="userSpaceOnUse"
       gradientTransform="matrix(0.99940218,-0.03291033,0.03631887,0.99940218,-7.6103462,2.382977)"
       x1="77.664345"
       y1="96.869926"
       x2="80.707932"
       y2="124.51938" /><linearGradient
       xlink:href="#linearGradient25"
       id="linearGradient163"
       gradientUnits="userSpaceOnUse"
       gradientTransform="matrix(0.9993184,-0.0351404,0.03877992,0.9993184,-4.1300556,3.0699617)"
       x1="155.07674"
       y1="60.133568"
       x2="169.75142"
       y2="49.823601" /><linearGradient
       xlink:href="#linearGradient14"
       id="linearGradient164"
       gradientUnits="userSpaceOnUse"
       gradientTransform="matrix(0.96275646,0.25737039,-0.28402644,0.96275646,32.078488,-13.530369)"
       x1="67.153893"
       y1="101.3872"
       x2="68.835846"
       y2="124.20695" /><linearGradient
       xlink:href="#linearGradient6"
       id="linearGradient165"
       gradientUnits="userSpaceOnUse"
       gradientTransform="translate(-15.356513,-3.2556285)"
       x1="127.05863"
       y1="94.378853"
       x2="131.50865"
       y2="126.41174" /><linearGradient
       xlink:href="#linearGradient6"
       id="linearGradient166"
       gradientUnits="userSpaceOnUse"
       gradientTransform="matrix(0.995686,0.08832547,-0.09747341,0.995686,10.170994,-11.9176)"
       x1="127.05863"
       y1="94.378853"
       x2="131.50865"
       y2="126.41174" /><linearGradient
       xlink:href="#linearGradient10"
       id="linearGradient167"
       gradientUnits="userSpaceOnUse"
       gradientTransform="matrix(0.99943765,-0.0319194,0.03522531,0.99943765,-2.152193,2.9674728)"
       x1="77.664345"
       y1="96.869926"
       x2="80.707932"
       y2="124.51938" /></defs><g
     id="layer3"><g
       id="g49"
       style="display:inline"
       transform="matrix(0.21270165,0,0,0.22344517,-7.9658083,-8.24045)"><path
         style="fill:url(#linearGradient49);fill-opacity:1;stroke:none;stroke-width:0.264583;stroke-opacity:1"
         d="m 88.646285,94.164015 c 0.86343,1.11578 -0.57561,5.50585 7.05501,9.079005 7.630615,3.57315 10.899825,4.4764 14.109995,4.44319 3.21018,-0.0332 5.17318,4.05134 5.42409,7.62449 0.25091,3.57315 0.16236,7.53151 -1.74161,9.37122 -1.90396,1.83971 -3.12162,2.08544 -3.4168,3.91851 -0.29519,1.83307 0.88556,2.01239 1.21027,1.97918 0.32471,-0.0332 4.40568,0.77706 5.18055,0.0531 0.77487,-0.72393 1.01102,-2.38431 1.99991,-2.75624 0.98888,-0.37193 0.73797,-0.352 1.44642,-1.0228 0.70845,-0.67079 1.83017,-9.3845 1.88921,-11.60941 0.059,-2.22492 1.13647,-12.75177 -0.11808,-14.452 -1.25455,-1.700245 -1.6383,-0.969675 -3.35039,-3.812255 -1.71209,-2.84258 -2.66407,-3.72591 -2.84857,-7.332266 -0.18449,-3.606358 -3.99242,-7.352189 -4.66397,-7.617852 -0.67156,-0.26566 -13.386795,-8.441401 -18.264785,-1.016156 -4.87799,7.425246 -3.91125,13.150254 -3.91125,13.150254 z"
         id="path39" /><path
         id="path40"
         style="fill:url(#linearGradient50);stroke:none;stroke-width:0.264583;stroke-opacity:1"
         d="m 171.05778,42.475444 c -0.12522,-0.0033 -0.23378,0.07659 -0.31988,0.252697 -0.91841,1.87851 -5.00964,4.330245 -12.08557,8.632032 -7.07593,4.301787 -8.97541,3.691108 -20.14244,14.717964 -5.30947,5.242828 -8.76611,7.537094 -11.03808,8.547799 -0.47649,-0.176249 -0.92333,-0.490536 -0.97307,-0.803052 -0.10752,1.640908 -1.67492,0.462206 -2.24328,1.160136 l -1.28364,-0.821655 c -0.60227,1.615345 -1.64913,0.354098 -2.23862,1.014408 l -2.22829,-0.681095 c -0.21509,0.913466 -0.77004,1.138075 -1.30948,1.394747 l 4.08037,5.307169 0.59841,0.714169 c -0.0628,0.741374 -0.0492,1.19893 0.11473,1.036629 0.0823,-0.08151 0.28383,-0.156973 0.5612,-0.22996 l 5.20847,6.217708 c -0.23501,-0.710456 1.41104,-4.618611 2.05052,-5.13302 -0.27992,-0.487324 -0.68682,-1.393558 -0.84801,-2.191081 1.53201,-0.309035 3.04998,-0.697978 4.23643,-1.246952 3.69452,-1.709444 6.82583,-1.239783 20.74809,-5.616712 13.92226,-4.376928 19.09879,-14.802625 20.14244,-19.837032 0.9458,-4.562432 -1.81987,-12.402997 -3.0303,-12.434899 z M 129.80913,83.80212 c 0.23329,0.406142 0.37845,0.521297 0.21808,0.03824 -0.039,-0.117567 -0.11606,-0.120306 -0.21808,-0.03824 z m -2.05052,5.13302 c 0.0178,0.05387 0.0466,0.08967 0.0873,0.10387 z m -1.25987,-15.112256 c 0.003,-0.04919 0.005,-0.100121 0.006,-0.154512 -0.0155,0.05102 -0.0139,0.102682 -0.006,0.154512 z" /><path
         id="path41"
         style="fill:url(#linearGradient51);fill-opacity:0.99308;stroke:none;stroke-width:0.298365;stroke-opacity:1"
         d="m 67.748456,88.706426 c -4.907985,0.189558 -6.539938,1.190739 -4.844046,8.178668 2.553909,1.13433 3.264293,10.501116 3.492309,14.064646 0.270091,4.22113 0.174893,8.89706 -1.874631,11.0704 -2.049514,2.17332 -3.360315,2.46375 -3.678061,4.62923 -0.317757,2.1655 0.953253,2.37737 1.302786,2.33814 0.349533,-0.0393 4.742503,0.91811 5.576611,0.0628 0.834107,-0.8552 1.088277,-2.81689 2.152766,-3.25627 1.064478,-0.43938 0.794391,-0.41568 1.557001,-1.20813 0.76261,-0.79244 1.970171,-11.08657 2.033725,-13.71497 0.06351,-2.62839 1.223628,-15.064021 -0.12683,-17.072587 -1.350458,-2.00858 -1.763882,-1.145431 -3.606857,-4.503485 -0.08759,-0.159599 -0.14974,-0.262944 -0.233634,-0.412691 -0.194507,-0.04274 -0.395,-0.0805 -0.602997,-0.111106 -0.39601,-0.05825 -0.778858,-0.07897 -1.148142,-0.06471 z" /><path
         style="display:inline;fill:#c66b3c;fill-opacity:0.99308;stroke:none;stroke-width:0.264583"
         d="m 79.518181,70.096816 c 0,0 1.928068,1.054412 2.073698,1.500989 0.296469,0.909127 2.795065,0.384184 2.885467,-0.06642 -0.418639,0.541116 -1.330761,0.971828 -0.110697,1.879558 0.53625,0.941131 1.42783,0.66551 2.361507,0.245737 -0.511585,1.362346 0.329857,1.883699 1.151236,2.417522 2.958125,0.29617 8.837443,-0.677388 8.770119,-0.834477 0.20768,0.299983 4.163969,0.855475 6.018669,0.588329 8.38719,-1.208067 16.17062,-1.026772 23.10602,-0.796575 2.75514,5.517113 2.22449,11.646773 2.37258,17.649901 0.39101,0.0144 -2.42423,10.20474 -3.06627,10.67629 -0.64203,0.47155 -5.51474,2.23607 -6.30227,2.00574 -0.45919,-0.1343 -10.47802,-5.01343 -12.22449,-4.93467 -1.04413,0.0471 -16.738468,0.51188 -17.168897,0.88997 -0.511807,0.44957 -10.272556,0.25902 -11.084324,-0.0465 -0.811768,-0.30551 -10.187168,2.15744 -9.942085,1.74758 0.640577,-1.07127 -5.133404,-5.963149 -6.028789,-6.138838 -0.422123,-0.08283 -0.389827,-4.252336 -0.338289,-6.188723 0.01863,-0.699954 -0.956075,-1.8192 -1.003638,-1.567405 0.410563,-0.05311 0.747669,-0.298715 0.922461,-0.969666 l -2.22129,-0.889966 c 0,0 -1.78589,-2.477296 -1.173375,-3.692699 0.612516,-1.215401 21.002657,-13.475692 21.002657,-13.475692 z"
         id="path42" /><path
         style="fill:#e9c6b4;fill-opacity:0.99308;stroke:none;stroke-width:0.264583;stroke-opacity:1"
         d="m 85.402792,99.392069 8.080782,-2.125294 7.158316,0.09962 6.89265,-1.188836 9.03277,2.835939 0.65679,3.486812 -6.67863,-0.75713 -5.02559,0.41177 -1.9261,-0.90989 -6.91479,1.26853 -5.372428,-0.67743 c 0,0 -4.302374,1.3748 -4.826331,1.10913 -0.52396,-0.26566 -3.195415,-1.14234 -3.195415,-1.14234 z"
         id="path43" /><path
         style="display:inline;fill:url(#linearGradient49-6);fill-opacity:1;stroke:none;stroke-width:0.264583;stroke-opacity:1"
         d="m 104.06593,94.269831 c 0.86343,1.11578 -0.57561,5.50585 7.05501,9.078999 7.63061,3.57315 10.89982,4.4764 14.10999,4.44319 3.21018,-0.0332 5.17318,4.05134 5.42409,7.62449 0.25091,3.57315 0.16236,7.53151 -1.74161,9.37122 -1.90396,1.83971 -3.12162,2.08544 -3.4168,3.91851 -0.29519,1.83307 0.88556,2.01239 1.21027,1.97918 0.32471,-0.0332 4.40568,0.77706 5.18055,0.0531 0.77487,-0.72393 1.01102,-2.38431 1.99991,-2.75624 0.98888,-0.37193 0.73797,-0.352 1.44642,-1.0228 0.70845,-0.67079 1.83017,-9.3845 1.88921,-11.60941 0.059,-2.22492 1.13647,-12.75177 -0.11808,-14.452 -1.25455,-1.700239 -1.6383,-0.969665 -3.35039,-3.812249 -1.71209,-2.84258 -2.66407,-3.72591 -2.84857,-7.332269 -0.18449,-3.606358 -3.99242,-7.352189 -4.66397,-7.617852 -0.67156,-0.26566 -13.38679,-8.441401 -18.26478,-1.016156 -4.87799,7.425246 -3.91125,13.150257 -3.91125,13.150257 z"
         id="path39-7" /><path
         style="fill:#f6ece7;fill-opacity:1;stroke:none;stroke-width:0.264583;stroke-opacity:1"
         d="m 61.970626,92.43118 c 1.83682,-2.949262 6.204457,-4.29652 6.204457,-4.29652 l 2.473447,-3.306183 4.320707,-2.808375 4.049355,-4.480253 3.652771,-0.695047 1.79563,-3.008677 0.174176,-1.479108 c -0.324171,-0.900824 -0.422251,-1.84404 -0.329929,-2.822957 0,0 -3.382769,-0.98289 -3.967212,-1.020461 -0.584444,-0.03757 -13.410888,8.772652 -14.621518,9.60859 -1.210633,0.835938 -4.477253,5.795211 -5.343483,6.556007 -0.866227,0.760799 -2.150758,1.591082 -2.150758,1.591082 l -0.09309,3.246086 2.298684,0.63944 0.146047,1.357415 z"
         id="path44" /><path
         style="display:inline;fill:#cc7443;fill-opacity:1;stroke-width:0.264583"
         d="m 60.069429,51.581128 -2.183287,-14.702058 9.231309,2.899891 7.298135,12.389945 2.420545,7.744039 8.1841,6.887281 c 0,0 -7.626046,6.421965 -8.412871,7.149251 -0.785385,0.725955 -7.216886,9.803757 -7.154629,9.866014 -4.365023,1.088339 -8.690132,1.298575 -13.095069,3.265016 -1.828085,-1.622073 -4.634609,-2.657083 -6.951914,-3.985625 L 42.365503,74.188573 C 41.115386,72.064274 39.365842,70.6935 37.450618,69.5727 c 0,0 7.529402,-6.043391 7.55154,-6.840374 0.02215,-0.796986 0.585446,-8.639411 0.585446,-8.639411 l -5.820299,-15.131829 8.878333,2.112751 8.678539,10.805792 1.510995,0.919855 c 0.674679,-0.374173 0.710053,-0.658873 1.234257,-1.218356 z"
         id="path45" /><path
         id="path46"
         style="fill:#dca191;fill-opacity:1;stroke:none;stroke-width:0.264583;stroke-opacity:1"
         d="m 58.518727,39.971762 1.664765,11.857246 0.836039,0.942448 c 0,0 1.084654,-0.398398 1.401982,-0.710551 0.317328,-0.312153 2.583305,0.863513 2.583305,0.863513 l 2.50889,-1.574064 -2.401596,-4.559038 -1.332543,-4.785611 -2.129024,-0.418613 c 0,0 -1.43894,-0.728999 -3.131818,-1.61533 z m -17.844731,1.058119 4.977944,13.013589 1.151921,-0.06072 1.064535,-0.934826 c 0,0 1.847155,0.718761 2.248958,0.831474 0.401804,0.112708 1.79524,-1.047482 1.79524,-1.047482 l -1.283643,-3.451469 -3.084049,-3.719669 -0.395536,-2.051376 -1.878438,-1.089856 z" /><path
         id="path48"
         style="display:inline;fill:url(#linearGradient53);fill-opacity:1;stroke:none;stroke-width:0.298365;stroke-opacity:1"
         d="m 79.1519,89.956119 c -4.907985,0.189558 -7.374857,6.575025 -5.678965,13.562951 2.553909,1.13433 4.099212,5.11683 4.327228,8.68036 0.270091,4.22113 0.174893,8.89706 -1.874631,11.0704 -2.049514,2.17332 -3.360315,2.46375 -3.678061,4.62923 -0.317757,2.1655 0.953253,2.37737 1.302786,2.33814 0.349533,-0.0393 4.742503,0.91811 5.576611,0.0628 0.834107,-0.8552 1.088277,-2.81689 2.152766,-3.25627 1.064478,-0.43938 0.794391,-0.41568 1.557001,-1.20813 0.76261,-0.79244 1.970171,-11.08657 2.033725,-13.71497 0.06351,-2.62839 1.223628,-15.064018 -0.12683,-17.072584 -1.350458,-2.00858 -1.763882,-1.145431 -3.606857,-4.503485 -0.08759,-0.159599 -0.14974,-0.262944 -0.233634,-0.412691 -0.194507,-0.04274 -0.395,-0.0805 -0.602997,-0.111106 -0.39601,-0.05825 -0.778858,-0.07897 -1.148142,-0.06471 z" /><path
         id="path49"
         style="fill:#794223;fill-opacity:1;stroke:none;stroke-width:0.264583;stroke-opacity:1"
         d="m 47.588371,66.567515 v 5.839953 h 2.468066 v -5.839953 z m 13.807426,0.165881 v 5.839437 h 2.468066 v -5.839437 z m -6.677112,11.933639 c -2.664071,0.01992 -4.614036,2.232698 -4.614036,2.232698 0.721943,1.296003 1.368163,2.926284 2.822301,4.087894 1.156657,0.654691 2.409651,0.825204 3.811766,-0.117923 0.941469,-1.13452 1.782436,-2.528788 2.566769,-3.831242 0,0 -1.922726,-2.391357 -4.5868,-2.371431 z" /></g><g
       id="g73"
       style="display:inline"
       transform="matrix(0.21270165,0,0,0.22344517,21.138358,-8.24045)"><path
         style="fill:url(#linearGradient77);fill-opacity:1;stroke:none;stroke-width:0.264583;stroke-opacity:1"
         d="m 88.646285,94.164015 c 0.86343,1.11578 -0.57561,5.50585 7.05501,9.079005 7.630615,3.57315 10.899825,4.4764 14.109995,4.44319 3.21018,-0.0332 5.17318,4.05134 5.42409,7.62449 0.25091,3.57315 0.16236,7.53151 -1.74161,9.37122 -1.90396,1.83971 -3.12162,2.08544 -3.4168,3.91851 -0.29519,1.83307 0.88556,2.01239 1.21027,1.97918 0.32471,-0.0332 4.40568,0.77706 5.18055,0.0531 0.77487,-0.72393 1.01102,-2.38431 1.99991,-2.75624 0.98888,-0.37193 0.73797,-0.352 1.44642,-1.0228 0.70845,-0.67079 1.83017,-9.3845 1.88921,-11.60941 0.059,-2.22492 1.13647,-12.75177 -0.11808,-14.452 -1.25455,-1.700245 -1.6383,-0.969675 -3.35039,-3.812255 -1.71209,-2.84258 -2.66407,-3.72591 -2.84857,-7.332266 -0.18449,-3.606358 -3.99242,-7.352189 -4.66397,-7.617852 -0.67156,-0.26566 -13.386795,-8.441401 -18.264785,-1.016156 -4.87799,7.425246 -3.91125,13.150254 -3.91125,13.150254 z"
         id="path63" /><path
         id="path64"
         style="fill:url(#linearGradient78);stroke:none;stroke-width:0.264583;stroke-opacity:1"
         d="m 168.67891,39.783824 c -0.12514,0.0054 -0.22726,0.09269 -0.29958,0.274323 -0.77139,1.937503 -4.66296,4.667928 -11.38886,9.451554 -6.7259,4.783626 -8.66727,4.307036 -18.95577,16.082932 -4.89177,5.598966 -8.16258,8.128096 -10.35067,9.294508 -0.48877,-0.142551 -0.9586,-0.424836 -1.03225,-0.733044 0.019,1.643997 -1.63486,0.577754 -2.14798,1.31344 l -1.34342,-0.729941 c -0.47635,1.653001 -1.61745,0.468139 -2.15455,1.167779 l -2.27471,-0.523889 c -0.14422,0.92601 -0.6804,1.188712 -1.19864,1.482308 l 4.4778,5.008393 0.65176,0.670524 c -0.006,0.743761 0.0432,1.19914 0.19419,1.025844 0.0758,-0.08703 0.27099,-0.176342 0.542,-0.268474 l 5.67293,5.837825 c -0.28905,-0.692161 1.05184,-4.704594 1.65002,-5.262211 -0.31667,-0.466496 -0.79221,-1.341923 -1.01433,-2.126064 1.50411,-0.41503 2.98807,-0.908774 4.12909,-1.539003 3.55305,-1.962466 6.71209,-1.712409 20.26014,-7.048362 13.54805,-5.335951 17.90841,-16.094593 18.56186,-21.188248 0.59218,-4.616125 -2.7694,-12.24278 -3.97903,-12.190194 z m -37.95773,44.091871 c 0.26392,0.388784 0.41755,0.493508 0.22044,0.02293 -0.0479,-0.114532 -0.12501,-0.11189 -0.22044,-0.02293 z m -1.65002,5.262211 c 0.0219,0.05248 0.0534,0.08618 0.0951,0.0975 z m -2.41938,-14.983809 c -8e-4,-0.04927 -0.003,-0.100201 -0.006,-0.154515 -0.0115,0.05196 -0.006,0.103375 0.006,0.154515 z" /><path
         id="path65"
         style="fill:url(#linearGradient79);fill-opacity:0.99308;stroke:none;stroke-width:0.298365;stroke-opacity:1"
         d="m 72.718129,89.34523 c -4.819348,-0.903997 -6.651409,-0.292244 -6.712229,6.879502 2.20606,1.66945 -4.903421,6.916218 -5.553732,10.432278 -0.770316,4.16489 0.92183,9.9145 -1.60316,11.57357 -2.524975,1.65905 -2.264251,2.37178 -3.103182,4.40722 -0.838947,2.03546 1.837031,2.25573 2.186548,2.29509 0.349534,0.0393 1.702145,0.26773 2.722614,-0.37908 1.341747,-0.66856 1.380466,-1.47126 2.523193,-1.66251 1.142716,-0.19124 1.287369,-1.34228 2.222923,-1.94383 0.935553,-0.60153 1.241041,-10.25728 1.946035,-12.79928 0.704993,-2.54199 10.384489,-10.358409 9.562711,-12.61118 -0.821774,-2.252784 -1.435051,-1.505057 -2.405555,-5.179405 -0.04612,-0.174631 -0.08127,-0.288915 -0.126215,-0.453146 -0.178696,-0.0847 -0.364433,-0.165876 -0.559218,-0.241763 -0.370861,-0.144462 -0.738106,-0.249508 -1.10072,-0.317529 z" /><path
         style="display:inline;fill:#c66b3c;fill-opacity:0.99308;stroke:none;stroke-width:0.264583"
         d="m 79.518181,70.096816 c 0,0 1.928068,1.054412 2.073698,1.500989 0.296469,0.909127 2.795065,0.384184 2.885467,-0.06642 -0.418639,0.541116 -1.330761,0.971828 -0.110697,1.879558 0.53625,0.941131 1.42783,0.66551 2.361507,0.245737 -0.511585,1.362346 0.329857,1.883699 1.151236,2.417522 2.958125,0.29617 8.837443,-0.677388 8.770119,-0.834477 0.20768,0.299983 4.163969,0.855475 6.018669,0.588329 8.38719,-1.208067 16.17062,-1.026772 23.10602,-0.796575 2.75514,5.517113 2.22449,11.646773 2.37258,17.649901 0.39101,0.0144 -2.42423,10.20474 -3.06627,10.67629 -0.64203,0.47155 -5.51474,2.23607 -6.30227,2.00574 -0.45919,-0.1343 -10.47802,-5.01343 -12.22449,-4.93467 -1.04413,0.0471 -16.738468,0.51188 -17.168897,0.88997 -0.511807,0.44957 -10.272556,0.25902 -11.084324,-0.0465 -0.811768,-0.30551 -10.187168,2.15744 -9.942085,1.74758 0.640577,-1.07127 -5.133404,-5.963149 -6.028789,-6.138838 -0.422123,-0.08283 -0.389827,-4.252336 -0.338289,-6.188723 0.01863,-0.699954 -0.956075,-1.8192 -1.003638,-1.567405 0.410563,-0.05311 0.747669,-0.298715 0.922461,-0.969666 l -2.22129,-0.889966 c 0,0 -1.78589,-2.477296 -1.173375,-3.692699 0.612516,-1.215401 21.002657,-13.475692 21.002657,-13.475692 z"
         id="path66" /><path
         style="fill:#e9c6b4;fill-opacity:0.99308;stroke:none;stroke-width:0.264583;stroke-opacity:1"
         d="m 85.402792,99.392069 8.080782,-2.125294 7.158316,0.09962 6.89265,-1.188836 9.03277,2.835939 0.65679,3.486812 -6.67863,-0.75713 -5.02559,0.41177 -1.9261,-0.90989 -6.91479,1.26853 -5.372428,-0.67743 c 0,0 -4.302374,1.3748 -4.826331,1.10913 -0.52396,-0.26566 -3.195415,-1.14234 -3.195415,-1.14234 z"
         id="path67" /><path
         style="fill:#f6ece7;fill-opacity:1;stroke:none;stroke-width:0.264583;stroke-opacity:1"
         d="m 61.970626,92.43118 c 1.83682,-2.949262 6.204457,-4.29652 6.204457,-4.29652 l 2.473447,-3.306183 4.320707,-2.808375 4.049355,-4.480253 3.652771,-0.695047 1.79563,-3.008677 0.174176,-1.479108 c -0.324171,-0.900824 -0.422251,-1.84404 -0.329929,-2.822957 0,0 -3.382769,-0.98289 -3.967212,-1.020461 -0.584444,-0.03757 -13.410888,8.772652 -14.621518,9.60859 -1.210633,0.835938 -4.477253,5.795211 -5.343483,6.556007 -0.866227,0.760799 -2.150758,1.591082 -2.150758,1.591082 l -0.09309,3.246086 2.298684,0.63944 0.146047,1.357415 z"
         id="path68" /><path
         style="display:inline;fill:#cc7443;fill-opacity:1;stroke-width:0.264583"
         d="m 60.069429,51.581128 -2.183287,-14.702058 9.231309,2.899891 7.298135,12.389945 2.420545,7.744039 8.1841,6.887281 c 0,0 -7.626046,6.421965 -8.412871,7.149251 -0.785385,0.725955 -7.216886,9.803757 -7.154629,9.866014 -4.365023,1.088339 -8.690132,1.298575 -13.095069,3.265016 -1.828085,-1.622073 -4.634609,-2.657083 -6.951914,-3.985625 L 42.365503,74.188573 C 41.115386,72.064274 39.365842,70.6935 37.450618,69.5727 c 0,0 7.529402,-6.043391 7.55154,-6.840374 0.02215,-0.796986 0.585446,-8.639411 0.585446,-8.639411 l -5.820299,-15.131829 8.878333,2.112751 8.678539,10.805792 1.510995,0.919855 c 0.674679,-0.374173 0.710053,-0.658873 1.234257,-1.218356 z"
         id="path69" /><path
         id="path70"
         style="fill:#dca191;fill-opacity:1;stroke:none;stroke-width:0.264583;stroke-opacity:1"
         d="m 58.518727,39.971762 1.664765,11.857246 0.836039,0.942448 c 0,0 1.084654,-0.398398 1.401982,-0.710551 0.317328,-0.312153 2.583305,0.863513 2.583305,0.863513 l 2.50889,-1.574064 -2.401596,-4.559038 -1.332543,-4.785611 -2.129024,-0.418613 c 0,0 -1.43894,-0.728999 -3.131818,-1.61533 z m -17.844731,1.058119 4.977944,13.013589 1.151921,-0.06072 1.064535,-0.934826 c 0,0 1.847155,0.718761 2.248958,0.831474 0.401804,0.112708 1.79524,-1.047482 1.79524,-1.047482 l -1.283643,-3.451469 -3.084049,-3.719669 -0.395536,-2.051376 -1.878438,-1.089856 z" /><path
         style="display:inline;fill:url(#linearGradient80);fill-opacity:1;stroke:none;stroke-width:0.264583;stroke-opacity:1"
         d="m 105.56658,94.684794 c 0.94758,1.052082 -0.14719,5.531266 7.73964,8.558616 7.88682,3.02736 11.21714,3.69848 14.41598,3.43984 3.19886,-0.25862 5.60299,2.93537 6.13023,6.48115 0.52724,3.54578 0.74581,7.49957 -1.01034,9.46801 -1.75615,1.96845 -2.95144,2.29905 -3.1037,4.14786 -0.15227,1.84881 1.03916,1.94469 1.36041,1.88876 0.32125,-0.0559 4.45391,0.46544 5.17054,-0.31098 0.71663,-0.77639 0.82341,-2.44883 1.78077,-2.88922 0.95735,-0.44038 0.70867,-0.40288 1.36319,-1.12162 0.65451,-0.71873 1.09763,-9.48748 0.98402,-11.71047 -0.11365,-2.223 0.14477,-12.796842 -1.23817,-14.4043 -1.38294,-1.607467 -1.83883,-0.110419 -3.76663,-2.824974 -1.9278,-2.714554 -2.94566,-3.528593 -3.40925,-7.112156 -0.46357,-3.583564 -4.55152,-7.051672 -5.24183,-7.269434 -0.69033,-0.217758 -14.00473,-7.477955 -18.29377,0.269723 -4.28903,7.74768 -2.88109,13.389166 -2.88109,13.389166 z"
         id="path71" /><path
         id="path72"
         style="display:inline;fill:url(#linearGradient81);fill-opacity:1;stroke:none;stroke-width:0.298365;stroke-opacity:1"
         d="m 79.1519,89.956119 c -4.907985,0.189558 -7.374857,6.575025 -5.678965,13.562951 2.553909,1.13433 4.099212,5.11683 4.327228,8.68036 0.270091,4.22113 0.174893,8.89706 -1.874631,11.0704 -2.049514,2.17332 -3.360315,2.46375 -3.678061,4.62923 -0.317757,2.1655 0.953253,2.37737 1.302786,2.33814 0.349533,-0.0393 4.742503,0.91811 5.576611,0.0628 0.834107,-0.8552 1.088277,-2.81689 2.152766,-3.25627 1.064478,-0.43938 0.794391,-0.41568 1.557001,-1.20813 0.76261,-0.79244 1.970171,-11.08657 2.033725,-13.71497 0.06351,-2.62839 1.223628,-15.064018 -0.12683,-17.072584 -1.350458,-2.00858 -1.763882,-1.145431 -3.606857,-4.503485 -0.08759,-0.159599 -0.14974,-0.262944 -0.233634,-0.412691 -0.194507,-0.04274 -0.395,-0.0805 -0.602997,-0.111106 -0.39601,-0.05825 -0.778858,-0.07897 -1.148142,-0.06471 z" /><path
         id="path73"
         style="fill:#794223;fill-opacity:1;stroke:none;stroke-width:0.264583;stroke-opacity:1"
         d="m 47.588371,66.567515 v 5.839953 h 2.468066 v -5.839953 z m 13.807426,0.165881 v 5.839437 h 2.468066 v -5.839437 z m -6.677112,11.933639 c -2.664071,0.01992 -4.614036,2.232698 -4.614036,2.232698 0.721943,1.296003 1.368163,2.926284 2.822301,4.087894 1.156657,0.654691 2.409651,0.825204 3.811766,-0.117923 0.941469,-1.13452 1.782436,-2.528788 2.566769,-3.831242 0,0 -1.922726,-2.391357 -4.5868,-2.371431 z" /></g><g
       id="g92"
       style="display:inline"
       transform="matrix(0.21270165,0,0,0.22344517,50.242526,-8.24045)"><path
         style="fill:url(#linearGradient92);fill-opacity:1;stroke:none;stroke-width:0.264583;stroke-opacity:1"
         d="m 90.462292,93.863084 c 0.91657,1.076686 -0.30824,5.525259 7.487379,8.759606 7.795609,3.23434 11.105109,3.99311 14.310249,3.819 3.20516,-0.17411 5.36396,3.81991 5.78773,7.37824 0.42376,3.55833 0.52708,7.51637 -1.28573,9.43771 -1.8128,1.92134 -3.01726,2.22027 -3.22331,4.06435 -0.20607,1.84408 0.98212,1.97137 1.30487,1.92394 0.32276,-0.0474 4.43864,0.58281 5.17761,-0.1744 0.73897,-0.75718 0.89443,-2.42616 1.86424,-2.84111 0.96981,-0.41495 0.72013,-0.38402 1.39533,-1.08521 0.6752,-0.70118 1.37355,-9.45487 1.32473,-11.68 -0.0489,-2.22514 0.51744,-12.7881 -0.81815,-14.431437 -1.3356,-1.643356 -1.68354,-0.896716 -3.53153,-3.661105 -1.84799,-2.76439 -2.84176,-3.604986 -3.20079,-7.199404 -0.35902,-3.594421 -4.34438,-7.169087 -5.02809,-7.404985 -0.68371,-0.235894 -13.781531,-7.844701 -18.294579,-0.2132 -4.513047,7.631502 -3.269961,13.307975 -3.269961,13.307975 z"
         id="path82" /><path
         id="path83"
         style="fill:url(#linearGradient93);stroke:none;stroke-width:0.264583;stroke-opacity:1"
         d="m 169.19729,38.670769 c -0.12513,0.0054 -0.22725,0.09269 -0.29956,0.274333 -0.77132,1.937529 -4.6628,4.668084 -11.38852,9.451936 -6.72571,4.783851 -8.6671,4.307326 -18.95517,16.083567 -4.89156,5.59913 -8.16228,8.12837 -10.35033,9.294854 -0.48877,-0.142534 -0.95861,-0.424803 -1.03228,-0.733009 0.0191,1.643997 -1.63483,0.577809 -2.14793,1.313513 l -1.34344,-0.729896 c -0.47629,1.653017 -1.61744,0.468192 -2.15451,1.167851 l -2.27473,-0.523813 c -0.14419,0.926015 -0.68035,1.188734 -1.19858,1.482348 l 4.47798,5.008243 0.65179,0.670502 c -0.006,0.743761 0.0432,1.199138 0.19422,1.025838 0.0758,-0.08703 0.27099,-0.176352 0.54199,-0.268493 l 5.67315,5.837635 c -0.28907,-0.692151 1.05167,-4.704629 1.64983,-5.262266 -0.31669,-0.466486 -0.79226,-1.341897 -1.01442,-2.12603 1.5041,-0.415081 2.98805,-0.908875 4.12904,-1.539142 3.55298,-1.962585 6.71203,-1.712634 20.25988,-7.04904 13.54786,-5.336406 17.90782,-16.095194 18.56108,-21.18887 0.592,-4.616145 -2.76986,-12.242687 -3.97949,-12.190061 z M 131.2412,82.763912 c 0.26393,0.388775 0.41757,0.493494 0.22044,0.02292 -0.0479,-0.11453 -0.12501,-0.111886 -0.22044,-0.02292 z m -1.64983,5.262266 c 0.0219,0.05248 0.0534,0.08618 0.0951,0.0975 z M 127.17143,73.04245 c -7.9e-4,-0.04927 -0.003,-0.1002 -0.006,-0.154515 -0.0115,0.05196 -0.006,0.103376 0.006,0.154515 z" /><path
         id="path84"
         style="fill:url(#linearGradient94);fill-opacity:0.99308;stroke:none;stroke-width:0.298365;stroke-opacity:1"
         d="m 72.718129,89.34523 c -4.819348,-0.903997 -6.651409,-0.292244 -6.712229,6.879502 2.20606,1.66945 -5.357818,5.062438 -6.008129,8.578498 -0.770316,4.16489 0.92183,9.9145 -1.60316,11.57357 -2.524975,1.65905 -2.264251,2.37178 -3.103182,4.40722 -0.838947,2.03546 1.837031,2.25573 2.186548,2.29509 0.349534,0.0393 1.702145,0.26773 2.722614,-0.37908 1.341747,-0.66856 1.380466,-1.47126 2.523193,-1.66251 1.142716,-0.19124 1.287369,-1.34228 2.222923,-1.94383 0.935553,-0.60153 1.241041,-10.25728 1.946035,-12.79928 0.704993,-2.54199 10.838886,-8.504629 10.017108,-10.7574 -0.821774,-2.252784 -1.435051,-1.505057 -2.405555,-5.179405 -0.04612,-0.174631 -0.08127,-0.288915 -0.126215,-0.453146 -0.178696,-0.0847 -0.364433,-0.165876 -0.559218,-0.241763 -0.370861,-0.144462 -0.738106,-0.249508 -1.10072,-0.317529 z" /><path
         style="display:inline;fill:#c66b3c;fill-opacity:0.99308;stroke:none;stroke-width:0.264583"
         d="m 79.518181,70.096816 c 0,0 1.928068,1.054412 2.073698,1.500989 0.296469,0.909127 2.795065,0.384184 2.885467,-0.06642 -0.418639,0.541116 -1.330761,0.971828 -0.110697,1.879558 0.53625,0.941131 1.42783,0.66551 2.361507,0.245737 -0.511585,1.362346 0.329857,1.883699 1.151236,2.417522 2.958125,0.29617 8.837443,-0.677388 8.770119,-0.834477 0.20768,0.299983 4.163969,0.855475 6.018669,0.588329 8.38719,-1.208067 16.17062,-1.026772 23.10602,-0.796575 2.75514,5.517113 2.22449,11.646773 2.37258,17.649901 0.39101,0.0144 -2.42423,10.20474 -3.06627,10.67629 -0.64203,0.47155 -5.51474,2.23607 -6.30227,2.00574 -0.45919,-0.1343 -10.47802,-5.01343 -12.22449,-4.93467 -1.04413,0.0471 -16.738468,0.51188 -17.168897,0.88997 -0.511807,0.44957 -10.272556,0.25902 -11.084324,-0.0465 -0.811768,-0.30551 -10.187168,2.15744 -9.942085,1.74758 0.640577,-1.07127 -5.133404,-5.963149 -6.028789,-6.138838 -0.422123,-0.08283 -0.389827,-4.252336 -0.338289,-6.188723 0.01863,-0.699954 -0.956075,-1.8192 -1.003638,-1.567405 0.410563,-0.05311 0.747669,-0.298715 0.922461,-0.969666 l -2.22129,-0.889966 c 0,0 -1.78589,-2.477296 -1.173375,-3.692699 0.612516,-1.215401 21.002657,-13.475692 21.002657,-13.475692 z"
         id="path85" /><path
         style="fill:#e9c6b4;fill-opacity:0.99308;stroke:none;stroke-width:0.264583;stroke-opacity:1"
         d="m 85.402792,99.392069 8.080782,-2.125294 7.158316,0.09962 6.89265,-1.188836 9.03277,2.835939 0.65679,3.486812 -6.67863,-0.75713 -5.02559,0.41177 -1.9261,-0.90989 -6.91479,1.26853 -5.372428,-0.67743 c 0,0 -4.302374,1.3748 -4.826331,1.10913 -0.52396,-0.26566 -3.195415,-1.14234 -3.195415,-1.14234 z"
         id="path86" /><path
         style="fill:#f6ece7;fill-opacity:1;stroke:none;stroke-width:0.264583;stroke-opacity:1"
         d="m 61.970626,92.43118 c 1.83682,-2.949262 6.204457,-4.29652 6.204457,-4.29652 l 2.473447,-3.306183 4.320707,-2.808375 4.049355,-4.480253 3.652771,-0.695047 1.79563,-3.008677 0.174176,-1.479108 c -0.324171,-0.900824 -0.422251,-1.84404 -0.329929,-2.822957 0,0 -3.382769,-0.98289 -3.967212,-1.020461 -0.584444,-0.03757 -13.410888,8.772652 -14.621518,9.60859 -1.210633,0.835938 -4.477253,5.795211 -5.343483,6.556007 -0.866227,0.760799 -2.150758,1.591082 -2.150758,1.591082 l -0.09309,3.246086 2.298684,0.63944 0.146047,1.357415 z"
         id="path87" /><path
         style="display:inline;fill:#cc7443;fill-opacity:1;stroke-width:0.264583"
         d="m 60.069429,56.030203 -3.481564,-13.033655 10.399758,1.72583 7.427963,11.895603 2.420545,7.744039 8.1841,6.887281 c 0,0 -7.626046,6.421965 -8.412871,7.149251 -0.785385,0.725955 -7.216886,9.803757 -7.154629,9.866014 -4.365023,1.088339 -8.690132,1.298575 -13.095069,3.265016 -1.828085,-1.622073 -4.634609,-2.657083 -6.951914,-3.985625 l -7.040245,-8.906309 c -1.250117,-2.124299 -2.999661,-3.495073 -4.914885,-4.615873 0,0 7.529402,-6.043391 7.55154,-6.840374 0.02215,-0.796986 0.585446,-8.639411 0.585446,-8.639411 l -6.858921,-14.513902 9.527472,2.174544 9.068022,10.126072 1.510995,0.919855 c 0.674679,-0.374173 0.710053,-0.658873 1.234257,-1.218356 z"
         id="path88" /><path
         id="path89"
         style="fill:#dca191;fill-opacity:1;stroke:none;stroke-width:0.264583;stroke-opacity:1"
         d="m 57.739761,44.853386 2.443731,11.424697 0.836039,0.942448 c 0,0 1.084654,-0.398398 1.401982,-0.710551 0.317328,-0.312153 2.583305,0.863513 2.583305,0.863513 l 2.50889,-1.574064 -2.401596,-4.559038 -1.332543,-4.785611 -2.129024,-0.418613 c 0,0 -2.217906,-0.29645 -3.910784,-1.182781 z m -17.714903,0.996326 5.627082,12.642833 1.151921,-0.06072 1.064535,-0.934826 c 0,0 1.847155,0.718761 2.248958,0.831474 0.401804,0.112708 1.79524,-1.047482 1.79524,-1.047482 l -1.283643,-3.451469 -3.084049,-3.719669 -0.395536,-2.051376 -1.878438,-1.089856 z" /><path
         style="display:inline;fill:url(#linearGradient95);fill-opacity:1;stroke:none;stroke-width:0.264583;stroke-opacity:1"
         d="m 104.39813,95.549892 c 0.94758,1.052082 -0.14719,5.531268 7.73964,8.558618 7.88682,3.02736 12.13516,3.08676 15.334,2.82812 3.19886,-0.25862 5.60299,2.93537 6.13023,6.48115 0.52724,3.54578 0.74581,7.49957 -1.01034,9.46801 -1.75615,1.96845 -2.95144,2.29905 -3.1037,4.14786 -0.15227,1.84881 1.03916,1.94469 1.36041,1.88876 0.32125,-0.0559 4.45391,0.46544 5.17054,-0.31098 0.71663,-0.77639 0.82341,-2.44883 1.78077,-2.88922 0.95735,-0.44038 0.70867,-0.40288 1.36319,-1.12162 0.65451,-0.71873 1.09763,-9.48748 0.98402,-11.71047 -0.11365,-2.223 0.14477,-12.79684 -1.23817,-14.404299 -1.38294,-1.607467 -1.83883,-0.110419 -3.76663,-2.824974 -1.9278,-2.714554 -3.86368,-2.916876 -4.32727,-6.500439 -0.46357,-3.583564 -4.55152,-7.051672 -5.24183,-7.269434 -0.69033,-0.217758 -14.00473,-7.477955 -18.29377,0.269723 -4.28903,7.74768 -2.88109,13.389166 -2.88109,13.389166 z"
         id="path90" /><path
         id="path91"
         style="display:inline;fill:url(#linearGradient96);fill-opacity:1;stroke:none;stroke-width:0.298365;stroke-opacity:1"
         d="m 75.23235,90.237955 c -4.788571,1.041716 -5.985631,7.749178 -2.974417,14.323435 2.728907,0.67006 5.014045,4.31593 5.92358,7.77949 1.077375,4.10271 1.883107,8.7162 0.286223,11.20999 -1.596878,2.49378 -2.829665,3.00774 -2.725554,5.192 0.104104,2.18428 1.39438,2.17105 1.73046,2.07157 0.336066,-0.0995 4.838923,0.0761 5.494431,-0.91015 0.655528,-0.98611 0.52811,-2.95894 1.490101,-3.57641 0.96198,-0.61748 0.701016,-0.5471 1.298325,-1.45907 0.59731,-0.91195 -0.195408,-11.24254 -0.638448,-13.83759 -0.443082,-2.59503 -1.694315,-15.022651 -3.408254,-16.76191 -1.713942,-1.739273 -1.954369,-0.818662 -4.412047,-3.798764 -0.116805,-0.141636 -0.197781,-0.232403 -0.309058,-0.364998 -0.199439,-0.0081 -0.403806,-0.0103 -0.614174,-0.0041 -0.400519,0.01175 -0.780881,0.0581 -1.141181,0.136481 z" /><path
         id="path92"
         style="fill:#794223;fill-opacity:1;stroke:none;stroke-width:0.264583;stroke-opacity:1"
         d="m 47.588371,71.01659 v 5.839953 h 2.468066 V 71.01659 Z m 13.807426,0.165881 v 5.839437 h 2.468066 V 71.182471 Z M 54.718685,83.11611 c -2.664071,0.01992 -4.614036,2.232698 -4.614036,2.232698 0.721943,1.296003 1.368163,2.926284 2.822301,4.087894 1.156657,0.654691 2.409651,0.825204 3.811766,-0.117923 0.941469,-1.13452 1.782436,-2.528788 2.566769,-3.831242 0,0 -1.922726,-2.391357 -4.5868,-2.371431 z" /></g><g
       id="g106"
       style="display:inline"
       transform="matrix(0.21270165,0,0,0.22344517,79.760911,-8.24045)"><path
         id="path97"
         style="fill:url(#linearGradient111);stroke:none;stroke-width:0.264583;stroke-opacity:1"
         d="m 164.79324,37.194131 c -0.12445,0.01354 -0.22005,0.107282 -0.27912,0.293212 -0.63017,1.98325 -4.31613,4.96101 -10.68201,10.171959 -6.36587,5.210947 -8.33698,4.862063 -17.75396,17.281156 -4.47738,5.90478 -7.55853,8.641242 -9.65755,9.947586 -0.49787,-0.110346 -0.98691,-0.361333 -1.08257,-0.664014 0.13729,1.638895 -1.58944,0.682996 -2.04842,1.450413 l -1.39279,-0.64063 c -0.35628,1.680179 -1.57997,0.572504 -2.06546,1.305523 l -2.30707,-0.374338 c -0.0773,0.933239 -0.59325,1.230284 -1.08915,1.556982 l 4.82767,4.704658 0.69848,0.626451 c 0.0475,0.742407 0.12934,1.193509 0.26755,1.010774 0.0694,-0.09177 0.25767,-0.193599 0.5214,-0.303185 l 6.07969,5.454213 c -0.33817,-0.671688 0.71084,-4.762128 1.26749,-5.35744 -0.34949,-0.444752 -0.88691,-1.287116 -1.16494,-2.054931 1.47071,-0.51213 2.91567,-1.101476 4.00865,-1.804624 3.4035,-2.189531 6.57311,-2.146045 19.70537,-8.352856 13.13228,-6.206812 16.70823,-17.224499 16.99361,-22.348797 0.25862,-4.643895 -3.64386,-12.033447 -4.84687,-11.902112 z m -34.69582,46.46332 c 0.29127,0.370662 0.45209,0.465123 0.22157,0.0085 -0.056,-0.111139 -0.13276,-0.103476 -0.22157,-0.0085 z m -1.26749,5.35744 c 0.0256,0.05093 0.0595,0.0825 0.10189,0.09107 z m -3.4919,-14.790861 c -0.004,-0.0491 -0.0102,-0.09977 -0.0171,-0.153762 -0.008,0.05259 10e-4,0.103525 0.0171,0.153762 z" /><path
         id="path98"
         style="fill:url(#linearGradient112);fill-opacity:0.99308;stroke:none;stroke-width:0.298365;stroke-opacity:1"
         d="m 69.768746,90.541749 c -4.716861,1.304926 -6.048814,2.649575 -2.641233,9.046094 2.765211,0.517927 5.777993,9.193157 6.897496,12.600547 1.326081,4.03614 5.604215,8.40283 4.162316,10.98077 -1.441896,2.57792 -2.794149,1.93904 -2.556834,4.11384 0.23731,2.17482 2.374349,1.27655 3.692473,1.38801 1.192395,0.10083 2.926291,0.34535 3.52047,-0.67547 0.869042,-1.18065 0.515989,-1.91054 1.438644,-2.58021 0.922652,-0.66965 0.495555,-1.75527 1.036159,-2.69875 0.540611,-0.94346 -3.848613,-9.65327 -4.44939,-12.21941 -0.600778,-2.56613 -2.571182,-14.647772 -4.388432,-16.289251 -1.817253,-1.641492 -2.001056,-0.709134 -4.636559,-3.548204 -0.125254,-0.134934 -0.211635,-0.221067 -0.330824,-0.347279 -0.199602,0.0029 -0.403752,0.01206 -0.613388,0.02985 -0.399126,0.03389 -0.776014,0.101215 -1.130918,0.199397 z" /><path
         style="display:inline;fill:url(#linearGradient52);fill-opacity:1;stroke:none;stroke-width:0.264583;stroke-opacity:1"
         d="m 504.10796,90.882534 c 0.86343,1.11578 -0.57561,5.505843 7.05501,9.078993 7.63062,3.573153 10.89983,4.476403 14.11,4.443193 3.21018,-0.0332 5.17318,4.05134 5.42409,7.62449 0.25091,3.57315 0.16236,7.53151 -1.74161,9.37122 -1.90396,1.83971 -3.12162,2.08544 -3.4168,3.91851 -0.29519,1.83307 0.88556,2.01239 1.21027,1.97918 0.32471,-0.0332 4.40568,0.77706 5.18055,0.0531 0.77487,-0.72393 1.01102,-2.38431 1.99991,-2.75624 0.98888,-0.37193 0.73797,-0.352 1.44642,-1.0228 0.70845,-0.67079 1.83017,-9.3845 1.88921,-11.60941 0.059,-2.22492 1.13647,-12.751773 -0.11808,-14.452003 -1.25455,-1.700237 -1.6383,-0.96967 -3.35039,-3.812249 -1.71209,-2.84258 -2.66407,-3.725905 -2.84857,-7.332263 -0.18449,-3.606358 -3.99242,-7.352189 -4.66397,-7.617852 -0.67156,-0.26566 -13.3868,-8.441401 -18.26479,-1.016156 -4.87799,7.425246 -3.91125,13.150257 -3.91125,13.150257 z"
         id="path47"
         transform="translate(-412.44023)" /><path
         style="display:inline;fill:#c66b3c;fill-opacity:0.99308;stroke:none;stroke-width:0.264583"
         d="m 79.518181,70.096816 c 0,0 1.928068,1.054412 2.073698,1.500989 0.296469,0.909127 2.795065,0.384184 2.885467,-0.06642 -0.418639,0.541116 -1.330761,0.971828 -0.110697,1.879558 0.53625,0.941131 1.42783,0.66551 2.361507,0.245737 -0.511585,1.362346 0.329857,1.883699 1.151236,2.417522 2.958125,0.29617 8.837443,-0.677388 8.770119,-0.834477 0.20768,0.299983 4.163969,0.855475 6.018669,0.588329 8.38719,-1.208067 16.17062,-1.026772 23.10602,-0.796575 2.75514,5.517113 2.22449,11.646773 2.37258,17.649901 0.39101,0.0144 -2.42423,10.20474 -3.06627,10.67629 -0.64203,0.47155 -5.51474,2.23607 -6.30227,2.00574 -0.45919,-0.1343 -10.47802,-5.01343 -12.22449,-4.93467 -1.04413,0.0471 -16.738468,0.51188 -17.168897,0.88997 -0.511807,0.44957 -10.272556,0.25902 -11.084324,-0.0465 -0.811768,-0.30551 -10.187168,2.15744 -9.942085,1.74758 0.640577,-1.07127 -5.133404,-5.963149 -6.028789,-6.138838 -0.422123,-0.08283 -0.389827,-4.252336 -0.338289,-6.188723 0.01863,-0.699954 -0.956075,-1.8192 -1.003638,-1.567405 0.410563,-0.05311 0.747669,-0.298715 0.922461,-0.969666 l -2.22129,-0.889966 c 0,0 -1.78589,-2.477296 -1.173375,-3.692699 0.612516,-1.215401 21.002657,-13.475692 21.002657,-13.475692 z"
         id="path99" /><path
         style="fill:#e9c6b4;fill-opacity:0.99308;stroke:none;stroke-width:0.264583;stroke-opacity:1"
         d="m 85.402792,99.392069 8.080782,-2.125294 7.158316,0.09962 6.89265,-1.188836 9.03277,2.835939 0.65679,3.486812 -6.67863,-0.75713 -5.02559,0.41177 -1.9261,-0.90989 -6.91479,1.26853 -5.372428,-0.67743 c 0,0 -4.302374,1.3748 -4.826331,1.10913 -0.52396,-0.26566 -3.195415,-1.14234 -3.195415,-1.14234 z"
         id="path100" /><path
         style="fill:#f6ece7;fill-opacity:1;stroke:none;stroke-width:0.264583;stroke-opacity:1"
         d="m 61.970626,92.43118 c 1.83682,-2.949262 6.204457,-4.29652 6.204457,-4.29652 l 2.473447,-3.306183 4.320707,-2.808375 4.049355,-4.480253 3.652771,-0.695047 1.79563,-3.008677 0.174176,-1.479108 c -0.324171,-0.900824 -0.422251,-1.84404 -0.329929,-2.822957 0,0 -3.382769,-0.98289 -3.967212,-1.020461 -0.584444,-0.03757 -13.410888,8.772652 -14.621518,9.60859 -1.210633,0.835938 -4.477253,5.795211 -5.343483,6.556007 -0.866227,0.760799 -2.150758,1.591082 -2.150758,1.591082 l -0.09309,3.246086 2.298684,0.63944 0.146047,1.357415 z"
         id="path101" /><path
         style="display:inline;fill:#cc7443;fill-opacity:1;stroke-width:0.264583"
         d="m 58.122014,54.88431 -2.183287,-14.702058 9.231309,2.899891 7.298135,12.389945 2.420545,7.744039 8.1841,6.887281 c 0,0 -7.626046,6.421965 -8.412871,7.149251 -0.785385,0.725955 -7.216886,9.803757 -7.154629,9.866014 -4.365023,1.088339 -8.690132,1.298575 -13.095069,3.265016 -1.828085,-1.622073 -4.634609,-2.657083 -6.951914,-3.985625 l -7.040245,-8.906309 c -1.250117,-2.124299 -2.999661,-3.495073 -4.914885,-4.615873 0,0 7.529402,-6.043391 7.55154,-6.840374 0.02215,-0.796986 0.585446,-8.639411 0.585446,-8.639411 l -4.522022,-16.429476 7.580056,3.410398 8.678539,10.805792 1.510995,0.919855 c 0.674679,-0.374173 0.710053,-0.658873 1.234257,-1.218356 z"
         id="path102" /><path
         id="path103"
         style="fill:#dca191;fill-opacity:1;stroke:none;stroke-width:0.264583;stroke-opacity:1"
         d="m 56.506398,42.71881 1.729679,12.41338 0.836039,0.942448 c 0,0 1.084654,-0.398398 1.401982,-0.710551 0.317328,-0.312153 2.583305,0.863513 2.583305,0.863513 l 2.50889,-1.574064 -2.401596,-4.559038 -1.332543,-4.785611 -2.129024,-0.418613 c 0,0 -1.503854,-1.285133 -3.196732,-2.171464 z m -16.546454,0.749155 3.744581,13.878687 1.151921,-0.06072 1.064535,-0.934826 c 0,0 1.847155,0.718761 2.248958,0.831474 0.401804,0.112708 1.79524,-1.047482 1.79524,-1.047482 L 48.681536,52.683629 45.597487,48.96396 45.201951,46.912584 43.323513,45.822728 Z" /><path
         style="display:inline;fill:url(#linearGradient113);fill-opacity:1;stroke:none;stroke-width:0.264583;stroke-opacity:1"
         d="m 103.58217,94.674216 c 1.02138,0.987513 0.25303,5.527804 8.34002,8.031314 8.08698,2.50353 12.32955,2.28449 15.5021,1.81692 3.17259,-0.46755 4.76329,2.06701 5.54562,5.56985 0.78234,3.50283 1.76815,8.04465 0.1585,10.12346 -1.60969,2.07882 -2.22158,1.93702 -2.23982,3.79143 -0.0182,1.8544 1.62844,2.27335 1.94488,2.19651 0.31646,-0.0768 3.45321,-0.43299 4.112,-1.25455 0.65881,-0.8215 0.3391,-2.00501 1.26235,-2.50707 0.92324,-0.50205 0.51721,-0.79789 1.11823,-1.5578 0.60099,-0.75991 0.40913,-9.5369 0.13509,-11.74718 -0.27406,-2.21028 0.25791,-12.281648 -1.23796,-13.794704 -1.49587,-1.513061 -1.84245,0.0103 -3.96193,-2.57153 -2.11948,-2.581828 -4.06539,-2.656854 -4.78695,-6.201554 -0.72156,-3.544696 -5.05052,-6.736787 -5.75493,-6.908813 -0.70445,-0.172018 -14.51215,-6.542791 -18.23091,1.467489 -3.71875,8.010281 -1.90631,13.54616 -1.90631,13.54616 z"
         id="path104" /><path
         id="path105"
         style="display:inline;fill:url(#linearGradient114);fill-opacity:1;stroke:none;stroke-width:0.298365;stroke-opacity:1"
         d="m 75.862965,89.855181 c -4.898167,0.350968 -11.385833,5.173062 -7.79568,11.478429 1.342921,2.35857 -2.078349,4.11804 -1.721047,7.67194 0.423237,4.20971 0.49792,8.88598 -1.471445,11.12547 -1.969357,2.23948 -3.268826,2.57287 -3.507735,4.74751 -0.238919,2.17467 1.039027,2.34458 1.386926,2.29387 0.347888,-0.0507 4.773008,0.76151 5.575558,-0.12077 0.802548,-0.88213 0.985319,-2.85102 2.033214,-3.32516 1.047886,-0.47416 0.778819,-0.44158 1.512194,-1.25866 0.733373,-0.81706 1.566342,-11.14478 1.534397,-13.7737 -0.03199,-2.62891 9.649438,-11.971147 8.226838,-13.934068 -1.4226,-1.962935 -1.804428,-1.086696 -3.768262,-4.38209 -0.09333,-0.156621 -0.1592,-0.257859 -0.248483,-0.404756 -0.195946,-0.03629 -0.397687,-0.06745 -0.606678,-0.09116 -0.397888,-0.04518 -0.781259,-0.05329 -1.149805,-0.02689 z" /><path
         id="path106"
         style="fill:#794223;fill-opacity:1;stroke:none;stroke-width:0.264583;stroke-opacity:1"
         d="m 45.640956,71.137824 v 4.572826 h 2.468066 v -4.572826 z m 13.807426,0.165881 v 4.57231 h 2.468066 v -4.57231 z M 52.77127,81.970217 c -2.664071,0.01992 -4.614036,2.232698 -4.614036,2.232698 0.721943,1.296003 1.368163,2.926284 2.822301,4.087894 1.156657,0.654691 2.409651,0.825204 3.811766,-0.117923 0.941469,-1.13452 1.782436,-2.528788 2.566769,-3.831242 0,0 -1.922726,-2.391357 -4.5868,-2.371431 z" /></g><g
       id="g135"
       style="display:inline"
       transform="matrix(0.21270165,0,0,0.22344517,108.86508,-8.24045)"><path
         id="path125"
         style="fill:url(#linearGradient135);stroke:none;stroke-width:0.264583;stroke-opacity:1"
         d="m 167.08598,38.29429 c -0.12502,0.0074 -0.22556,0.09636 -0.29461,0.279146 -0.73658,1.949742 -4.57868,4.742938 -11.21791,9.635043 -6.63922,4.892104 -8.58885,4.447096 -18.66492,16.388282 -4.79075,5.677555 -8.01579,8.259409 -10.18267,9.461167 -0.49125,-0.134596 -0.96607,-0.409214 -1.04523,-0.716181 0.0485,1.64345 -1.62427,0.604206 -2.12414,1.348115 l -1.3563,-0.708029 c -0.44666,1.660494 -1.60883,0.494325 -2.13332,1.202583 l -2.28377,-0.486891 c -0.12766,0.928214 -0.65899,1.199583 -1.1719,1.501548 l 4.56686,4.934982 0.66368,0.659847 c 0.007,0.74375 0.0646,1.198264 0.21254,1.022544 0.0743,-0.08825 0.26779,-0.180716 0.5371,-0.277234 l 5.77669,5.744894 c -0.3014,-0.687369 0.96741,-4.720983 1.55552,-5.288229 -0.32498,-0.461288 -0.81614,-1.328869 -1.05228,-2.10929 1.49646,-0.439385 2.97137,-0.957145 4.10092,-1.605803 3.51739,-2.019853 6.68045,-1.821111 20.13094,-7.376198 13.45051,-5.555087 17.61751,-16.382941 18.17962,-21.486462 0.5094,-4.625065 -2.98831,-12.196046 -4.19682,-12.123834 z M 129.9236,82.995877 c 0.27083,0.384443 0.42633,0.486659 0.22081,0.01935 -0.0499,-0.113736 -0.12699,-0.109844 -0.22081,-0.01935 z m -1.55552,5.288229 c 0.0228,0.05212 0.055,0.08531 0.0968,0.09594 z m -2.68744,-14.942359 c -10e-4,-0.04923 -0.005,-0.100137 -0.009,-0.154396 -0.0108,0.05213 -0.005,0.103437 0.009,0.154396 z" /><path
         id="path126"
         style="fill:url(#linearGradient136);fill-opacity:0.99308;stroke:none;stroke-width:0.298365;stroke-opacity:1"
         d="m 71.196851,89.923822 c -4.716861,1.304926 -6.048814,2.649575 -2.641233,9.046094 2.765211,0.517927 5.777993,9.193154 6.897496,12.600544 1.326081,4.03614 6.246829,9.10193 4.80493,11.67987 -1.441896,2.57792 -3.436763,1.23994 -3.199448,3.41474 0.23731,2.17482 2.355682,1.44542 3.627559,1.54249 1.271878,0.0971 2.929885,0.15627 3.585384,-0.82995 0.809727,-1.21826 1.158603,-1.21144 2.081258,-1.88111 0.922652,-0.66965 0.495555,-1.75527 1.036159,-2.69875 0.540611,-0.94346 -4.491227,-10.35237 -5.092004,-12.91851 C 81.696174,107.31311 79.72577,95.231471 77.90852,93.589992 76.091267,91.9485 75.907464,92.880858 73.271961,90.041788 c -0.125254,-0.134934 -0.211635,-0.221067 -0.330824,-0.347279 -0.199602,0.0029 -0.403752,0.01206 -0.613388,0.02985 -0.399126,0.03389 -0.776014,0.101215 -1.130918,0.199397 z" /><path
         style="display:inline;fill:url(#linearGradient137);fill-opacity:1;stroke:none;stroke-width:0.264583;stroke-opacity:1"
         d="m 504.10796,90.882534 c 0.86343,1.11578 -0.57561,5.505843 7.05501,9.078993 7.63062,3.573153 10.89983,4.476403 14.11,4.443193 3.21018,-0.0332 6.34163,3.49521 6.59254,7.06836 0.25091,3.57315 0.16236,7.53151 -1.74161,9.37122 -1.90396,1.83971 -3.12162,2.08544 -3.4168,3.91851 -0.29519,1.83307 0.88556,2.01239 1.21027,1.97918 0.32471,-0.0332 4.40568,0.77706 5.18055,0.0531 0.77487,-0.72393 1.01102,-2.38431 1.99991,-2.75624 0.98888,-0.37193 0.73797,-0.352 1.44642,-1.0228 0.70845,-0.67079 1.83017,-9.3845 1.88921,-11.60941 0.059,-2.22492 -0.032,-12.195643 -1.28653,-13.895873 -1.25455,-1.700237 -1.6383,-0.96967 -3.35039,-3.812249 -1.71209,-2.84258 -2.66407,-3.725905 -2.84857,-7.332263 -0.18449,-3.606358 -3.99242,-7.352189 -4.66397,-7.617852 -0.67156,-0.26566 -13.3868,-8.441401 -18.26479,-1.016156 -4.87799,7.425246 -3.91125,13.150257 -3.91125,13.150257 z"
         id="path128"
         transform="translate(-412.44023)" /><path
         style="display:inline;fill:#c66b3c;fill-opacity:0.99308;stroke:none;stroke-width:0.264583"
         d="m 79.518181,70.096816 c 0,0 1.928068,1.054412 2.073698,1.500989 0.296469,0.909127 2.795065,0.384184 2.885467,-0.06642 -0.418639,0.541116 -1.330761,0.971828 -0.110697,1.879558 0.53625,0.941131 1.42783,0.66551 2.361507,0.245737 -0.511585,1.362346 0.329857,1.883699 1.151236,2.417522 2.958125,0.29617 8.837443,-0.677388 8.770119,-0.834477 0.20768,0.299983 4.163969,0.855475 6.018669,0.588329 8.38719,-1.208067 16.17062,-1.026772 23.10602,-0.796575 2.75514,5.517113 2.22449,11.646773 2.37258,17.649901 0.39101,0.0144 -2.42423,10.20474 -3.06627,10.67629 -0.64203,0.47155 -5.51474,2.23607 -6.30227,2.00574 -0.45919,-0.1343 -10.47802,-5.01343 -12.22449,-4.93467 -1.04413,0.0471 -16.738468,0.51188 -17.168897,0.88997 -0.511807,0.44957 -10.272556,0.25902 -11.084324,-0.0465 -0.811768,-0.30551 -10.187168,2.15744 -9.942085,1.74758 0.640577,-1.07127 -5.133404,-5.963149 -6.028789,-6.138838 -0.422123,-0.08283 -0.389827,-4.252336 -0.338289,-6.188723 0.01863,-0.699954 -0.956075,-1.8192 -1.003638,-1.567405 0.410563,-0.05311 0.747669,-0.298715 0.922461,-0.969666 l -2.22129,-0.889966 c 0,0 -1.78589,-2.477296 -1.173375,-3.692699 0.612516,-1.215401 21.002657,-13.475692 21.002657,-13.475692 z"
         id="path127" /><path
         style="fill:#e9c6b4;fill-opacity:0.99308;stroke:none;stroke-width:0.264583;stroke-opacity:1"
         d="m 85.402792,99.392069 8.080782,-2.125294 7.158316,0.09962 6.89265,-1.188836 9.03277,2.835939 0.65679,3.486812 -6.67863,-0.75713 -5.02559,0.41177 -1.9261,-0.90989 -6.91479,1.26853 -5.372428,-0.67743 c 0,0 -4.302374,1.3748 -4.826331,1.10913 -0.52396,-0.26566 -3.195415,-1.14234 -3.195415,-1.14234 z"
         id="path129" /><path
         style="fill:#f6ece7;fill-opacity:1;stroke:none;stroke-width:0.264583;stroke-opacity:1"
         d="m 61.970626,92.43118 c 1.83682,-2.949262 6.204457,-4.29652 6.204457,-4.29652 l 2.473447,-3.306183 4.320707,-2.808375 4.049355,-4.480253 3.652771,-0.695047 1.79563,-3.008677 0.174176,-1.479108 c -0.324171,-0.900824 -0.422251,-1.84404 -0.329929,-2.822957 0,0 -3.382769,-0.98289 -3.967212,-1.020461 -0.584444,-0.03757 -13.410888,8.772652 -14.621518,9.60859 -1.210633,0.835938 -4.477253,5.795211 -5.343483,6.556007 -0.866227,0.760799 -2.150758,1.591082 -2.150758,1.591082 l -0.09309,3.246086 2.298684,0.63944 0.146047,1.357415 z"
         id="path130" /><path
         style="display:inline;fill:#cc7443;fill-opacity:1;stroke-width:0.264583"
         d="m 58.122014,54.88431 -3.284911,-13.784483 10.332933,1.982316 7.298135,12.389945 2.420545,7.744039 8.1841,6.887281 c 0,0 -7.626046,6.421965 -8.412871,7.149251 -0.785385,0.725955 -7.216886,9.803757 -7.154629,9.866014 -4.365023,1.088339 -8.690132,1.298575 -13.095069,3.265016 -1.828085,-1.622073 -4.634609,-2.657083 -6.951914,-3.985625 l -7.040245,-8.906309 c -1.250117,-2.124299 -2.999661,-3.495073 -4.914885,-4.615873 0,0 7.529402,-6.043391 7.55154,-6.840374 0.02215,-0.796986 0.585446,-8.639411 0.585446,-8.639411 l -5.807251,-15.206043 8.865285,2.186965 8.678539,10.805792 1.510995,0.919855 c 0.674679,-0.374173 0.710053,-0.658873 1.234257,-1.218356 z"
         id="path131" /><path
         id="path132"
         style="fill:#dca191;fill-opacity:1;stroke:none;stroke-width:0.264583;stroke-opacity:1"
         d="m 55.955586,43.723773 2.280491,11.408417 0.836039,0.942448 c 0,0 1.084654,-0.398398 1.401982,-0.710551 0.317328,-0.312153 2.583305,0.863513 2.583305,0.863513 l 2.50889,-1.574064 -2.401596,-4.559038 -1.332543,-4.785611 -2.129024,-0.418613 c 0,0 -2.054666,-0.28017 -3.747544,-1.166501 z m -17.005464,0.399603 4.754403,13.223276 1.151921,-0.06072 1.064535,-0.934826 c 0,0 1.847155,0.718761 2.248958,0.831474 0.401804,0.112708 1.79524,-1.047482 1.79524,-1.047482 L 48.681536,52.683629 45.597487,48.96396 45.201951,46.912584 43.323513,45.822728 Z" /><path
         style="display:inline;fill:url(#linearGradient138);fill-opacity:1;stroke:none;stroke-width:0.264583;stroke-opacity:1"
         d="m 103.58217,94.674216 c 1.02138,0.987513 0.25303,5.527804 8.34002,8.031314 8.08698,2.50353 12.32955,2.28449 15.5021,1.81692 3.17259,-0.46755 5.0387,0.75619 5.82103,4.25903 0.78234,3.50283 2.59437,8.96222 0.98472,11.04103 -1.60969,2.07882 -2.22158,1.93702 -2.23982,3.79143 -0.0182,1.8544 1.62844,2.27335 1.94488,2.19651 0.31646,-0.0768 2.71879,-0.78254 3.37758,-1.6041 0.65881,-0.8215 0.3391,-2.00501 1.26235,-2.50707 0.92324,-0.50205 0.51721,-0.79789 1.11823,-1.5578 0.60099,-0.75991 0.31733,-10.10492 0.0433,-12.3152 -0.27406,-2.21028 0.34971,-11.495157 -1.14616,-13.008213 -1.49587,-1.513061 -2.20966,0.534629 -4.32914,-2.047201 -2.11948,-2.581828 -4.06539,-2.656854 -4.78695,-6.201554 -0.72156,-3.544696 -5.05052,-6.736787 -5.75493,-6.908813 -0.70445,-0.172018 -14.51215,-6.542791 -18.23091,1.467489 -3.71875,8.010281 -1.90631,13.54616 -1.90631,13.54616 z"
         id="path133" /><path
         id="path134"
         style="display:inline;fill:url(#linearGradient139);fill-opacity:1;stroke:none;stroke-width:0.298365;stroke-opacity:1"
         d="m 74.761341,89.680405 c -4.898167,0.350968 -11.515661,2.701354 -7.925508,9.006721 1.342921,2.358564 -3.766109,5.353904 -3.408807,8.907804 0.423237,4.20971 0.49792,8.88598 -1.471445,11.12547 -1.969357,2.23948 -3.268826,2.57287 -3.507735,4.74751 -0.238919,2.17467 1.039027,2.34458 1.386926,2.29387 0.347888,-0.0507 4.773008,0.76151 5.575558,-0.12077 0.802548,-0.88213 0.985319,-2.85102 2.033214,-3.32516 1.047886,-0.47416 0.778819,-0.44158 1.512194,-1.25866 0.733373,-0.81706 1.566342,-11.14478 1.534397,-13.7737 -0.03199,-2.62891 11.467026,-10.735303 10.044426,-12.698224 -1.4226,-1.962935 -1.804428,-1.086696 -3.768262,-4.38209 -0.09333,-0.156621 -0.1592,-0.257859 -0.248483,-0.404756 -0.195946,-0.03629 -0.397687,-0.06745 -0.606678,-0.09116 -0.397888,-0.04518 -0.781259,-0.05329 -1.149805,-0.02689 z" /><path
         id="path135"
         style="fill:#794223;fill-opacity:1;stroke:none;stroke-width:0.264583;stroke-opacity:1"
         d="m 45.640956,71.662153 v 4.048497 h 2.468066 v -4.048497 z m 13.807426,0.165881 v 4.047981 h 2.468066 V 71.828034 Z M 52.77127,81.970217 c -2.664071,0.01992 -4.614036,2.232698 -4.614036,2.232698 0.721943,1.296003 1.368163,2.926284 2.822301,4.087894 1.156657,0.654691 2.409651,0.825204 3.811766,-0.117923 0.941469,-1.13452 1.782436,-2.528788 2.566769,-3.831242 0,0 -1.922726,-2.391357 -4.5868,-2.371431 z" /></g><g
       id="g149"
       style="display:inline"
       transform="matrix(0.21270165,0,0,0.22344517,137.96924,-8.24045)"><path
         id="path139"
         style="fill:url(#linearGradient149);stroke:none;stroke-width:0.264583;stroke-opacity:1"
         d="m 168.45832,39.505417 c -0.12526,10e-4 -0.23064,0.08475 -0.30985,0.263766 -0.84495,1.909502 -4.83831,4.503333 -11.7426,9.050839 -6.90427,4.547505 -8.82615,4.003991 -19.55794,15.415745 -5.10253,5.425832 -8.46785,7.840002 -10.69908,8.929855 -0.48299,-0.159384 -0.94172,-0.457756 -1.00354,-0.76831 -0.0438,1.64357 -1.65586,0.520747 -2.19677,1.238175 l -1.31463,-0.775988 c -0.5392,1.63541 -1.63427,0.411808 -2.19776,1.092384 l -2.25318,-0.602329 c -0.17957,0.920397 -0.72537,1.16436 -1.25449,1.439811 l 4.28339,5.160167 0.62571,0.692654 c -0.0348,0.743044 -0.003,1.199838 0.15485,1.031892 0.0791,-0.08435 0.27755,-0.166841 0.55189,-0.249526 l 5.44605,6.030444 c -0.26239,-0.701714 1.23096,-4.665048 1.85007,-5.201578 -0.29863,-0.477155 -0.74041,-1.368473 -0.93241,-2.159788 1.51898,-0.362661 3.02084,-0.80468 4.18518,-1.394973 3.62571,-1.838105 6.77311,-1.478801 20.51613,-6.34198 13.74305,-4.863178 18.51173,-15.463674 19.35944,-20.531323 0.76822,-4.592558 -2.29962,-12.330592 -3.51046,-12.319937 z m -39.61788,42.748001 c 0.24886,0.397666 0.39841,0.507643 0.2194,0.03055 -0.0434,-0.116111 -0.12064,-0.116145 -0.2194,-0.03055 z m -1.85007,5.201578 c 0.0198,0.05321 0.0501,0.08799 0.0913,0.100725 z m -1.84506,-15.057684 c 0.002,-0.04921 6.2e-4,-0.100248 -3.3e-4,-0.154633 -0.0137,0.05151 -0.0108,0.103035 3.3e-4,0.154633 z" /><path
         id="path140"
         style="fill:url(#linearGradient150);fill-opacity:0.99308;stroke:none;stroke-width:0.298365;stroke-opacity:1"
         d="m 71.196851,89.923822 c -4.716861,1.304926 -6.048814,2.649575 -2.641233,9.046094 2.765211,0.517927 5.777993,9.193154 6.897496,12.600544 1.326081,4.03614 6.246829,9.59627 4.80493,12.17421 -1.441896,2.57792 -3.436763,0.7456 -3.199448,2.9204 0.23731,2.17482 2.355682,1.44542 3.627559,1.54249 1.271878,0.0971 2.929885,0.15627 3.585384,-0.82995 0.809727,-1.21826 1.158603,-0.7171 2.081258,-1.38677 0.922652,-0.66965 0.495555,-1.75527 1.036159,-2.69875 0.540611,-0.94346 -4.491227,-10.84671 -5.092004,-13.41285 C 81.696174,107.31311 79.72577,95.231471 77.90852,93.589992 76.091267,91.9485 75.907464,92.880858 73.271961,90.041788 c -0.125254,-0.134934 -0.211635,-0.221067 -0.330824,-0.347279 -0.199602,0.0029 -0.403752,0.01206 -0.613388,0.02985 -0.399126,0.03389 -0.776014,0.101215 -1.130918,0.199397 z" /><path
         style="display:inline;fill:url(#linearGradient151);fill-opacity:1;stroke:none;stroke-width:0.264583;stroke-opacity:1"
         d="m 504.10796,90.882534 c 0.86343,1.11578 -0.57561,5.505843 7.05501,9.078993 7.63062,3.573153 10.89983,4.476403 14.11,4.443193 3.21018,-0.0332 6.34163,3.49521 6.59254,7.06836 0.25091,3.57315 1.26398,10.15315 -0.63999,11.99286 -1.90396,1.83971 -3.25932,0.1629 -3.5545,1.99597 -0.29519,1.83307 0.88556,2.01239 1.21027,1.97918 0.32471,-0.0332 5.2778,0.38382 6.05267,-0.34014 0.77487,-0.72393 0.68971,-1.64151 1.6786,-2.01344 0.98888,-0.37193 0.73797,-0.352 1.44642,-1.0228 0.70845,-0.67079 0.31544,-10.43316 0.37448,-12.65807 0.059,-2.22492 -0.032,-12.195643 -1.28653,-13.895873 -1.25455,-1.700237 -1.6383,-0.96967 -3.35039,-3.812249 -1.71209,-2.84258 -2.66407,-3.725905 -2.84857,-7.332263 -0.18449,-3.606358 -3.99242,-7.352189 -4.66397,-7.617852 -0.67156,-0.26566 -13.3868,-8.441401 -18.26479,-1.016156 -4.87799,7.425246 -3.91125,13.150257 -3.91125,13.150257 z"
         id="path142"
         transform="translate(-412.44023)" /><path
         style="display:inline;fill:#c66b3c;fill-opacity:0.99308;stroke:none;stroke-width:0.264583"
         d="m 79.518181,70.096816 c 0,0 1.928068,1.054412 2.073698,1.500989 0.296469,0.909127 2.795065,0.384184 2.885467,-0.06642 -0.418639,0.541116 -1.330761,0.971828 -0.110697,1.879558 0.53625,0.941131 1.42783,0.66551 2.361507,0.245737 -0.511585,1.362346 0.329857,1.883699 1.151236,2.417522 2.958125,0.29617 8.837443,-0.677388 8.770119,-0.834477 0.20768,0.299983 4.163969,0.855475 6.018669,0.588329 8.38719,-1.208067 16.17062,-1.026772 23.10602,-0.796575 2.75514,5.517113 2.22449,11.646773 2.37258,17.649901 0.39101,0.0144 -2.42423,10.20474 -3.06627,10.67629 -0.64203,0.47155 -5.51474,2.23607 -6.30227,2.00574 -0.45919,-0.1343 -10.47802,-5.01343 -12.22449,-4.93467 -1.04413,0.0471 -16.738468,0.51188 -17.168897,0.88997 -0.511807,0.44957 -10.272556,0.25902 -11.084324,-0.0465 -0.811768,-0.30551 -10.187168,2.15744 -9.942085,1.74758 0.640577,-1.07127 -5.133404,-5.963149 -6.028789,-6.138838 -0.422123,-0.08283 -0.389827,-4.252336 -0.338289,-6.188723 0.01863,-0.699954 -0.956075,-1.8192 -1.003638,-1.567405 0.410563,-0.05311 0.747669,-0.298715 0.922461,-0.969666 l -2.22129,-0.889966 c 0,0 -1.78589,-2.477296 -1.173375,-3.692699 0.612516,-1.215401 21.002657,-13.475692 21.002657,-13.475692 z"
         id="path141" /><path
         style="fill:#e9c6b4;fill-opacity:0.99308;stroke:none;stroke-width:0.264583;stroke-opacity:1"
         d="m 85.402792,99.392069 8.080782,-2.125294 7.158316,0.09962 6.89265,-1.188836 9.03277,2.835939 0.65679,3.486812 -6.67863,-0.75713 -5.02559,0.41177 -1.9261,-0.90989 -6.91479,1.26853 -5.372428,-0.67743 c 0,0 -4.302374,1.3748 -4.826331,1.10913 -0.52396,-0.26566 -3.195415,-1.14234 -3.195415,-1.14234 z"
         id="path143" /><path
         style="fill:#f6ece7;fill-opacity:1;stroke:none;stroke-width:0.264583;stroke-opacity:1"
         d="m 61.970626,92.43118 c 1.83682,-2.949262 6.204457,-4.29652 6.204457,-4.29652 l 2.473447,-3.306183 4.320707,-2.808375 4.049355,-4.480253 3.652771,-0.695047 1.79563,-3.008677 0.174176,-1.479108 c -0.324171,-0.900824 -0.422251,-1.84404 -0.329929,-2.822957 0,0 -3.382769,-0.98289 -3.967212,-1.020461 -0.584444,-0.03757 -13.410888,8.772652 -14.621518,9.60859 -1.210633,0.835938 -4.477253,5.795211 -5.343483,6.556007 -0.866227,0.760799 -2.150758,1.591082 -2.150758,1.591082 l -0.09309,3.246086 2.298684,0.63944 0.146047,1.357415 z"
         id="path144" /><path
         style="display:inline;fill:#cc7443;fill-opacity:1;stroke-width:0.264583"
         d="m 58.122014,52.289016 -1.357069,-15.488551 8.405091,3.686384 7.298135,12.389945 2.420545,7.744039 8.1841,6.887281 c 0,0 -7.626046,6.421965 -8.412871,7.149251 -0.785385,0.725955 -7.216886,9.803757 -7.154629,9.866014 -4.365023,1.088339 -8.690132,1.298575 -13.095069,3.265016 -1.828085,-1.622073 -4.634609,-2.657083 -6.951914,-3.985625 l -7.040245,-8.906309 c -1.250117,-2.124299 -2.999661,-3.495073 -4.914885,-4.615873 0,0 7.529402,-6.043391 7.55154,-6.840374 0.02215,-0.796986 0.585446,-8.639411 0.585446,-8.639411 l -3.604002,-17.084887 6.662036,4.065809 8.678539,10.805792 1.510995,0.919855 c 0.674679,-0.374173 0.710053,-0.658873 1.234257,-1.218356 z"
         id="path145" /><path
         id="path146"
         style="fill:#dca191;fill-opacity:1;stroke:none;stroke-width:0.264583;stroke-opacity:1"
         d="m 57.240814,39.118553 1.362471,13.505731 0.468831,0.85506 c 0,0 1.084654,-0.398398 1.401982,-0.710551 0.317328,-0.312153 2.583305,0.863513 2.583305,0.863513 l 2.50889,-1.574064 -2.401596,-4.559038 -1.332543,-4.785611 -2.129024,-0.418613 c 0,0 -0.769438,-2.290096 -2.462316,-3.176427 z m -16.454652,1.186095 3.193769,14.44671 0.876515,-0.06072 1.064535,-0.934826 c 0,0 1.847155,0.718761 2.248958,0.831474 0.401804,0.112708 1.79524,-1.047482 1.79524,-1.047482 L 48.681536,50.088335 45.597487,46.368666 45.201951,44.31729 43.323513,43.227434 Z" /><path
         style="display:inline;fill:url(#linearGradient152);fill-opacity:1;stroke:none;stroke-width:0.264583;stroke-opacity:1"
         d="m 103.79599,93.748931 c 0.90489,1.085594 -0.36787,5.521956 7.39243,8.832379 7.76028,3.31044 12.00319,3.52346 15.21003,3.38071 3.20689,-0.14272 4.92521,1.26353 5.31054,4.82583 0.38534,3.56228 1.57524,9.17452 -0.25818,11.07802 -1.83346,1.9035 -3.97501,1.54218 -4.20095,3.38415 -0.22591,1.84198 2.60685,2.55263 2.93009,2.50836 0.32326,-0.0442 3.32706,0.22842 4.07416,-0.52156 0.74711,-0.74991 0.56185,-1.95913 1.5361,-2.36458 0.97423,-0.40543 0.60367,-0.74081 1.28641,-1.43536 0.68272,-0.69454 1.21839,-10.71413 1.19362,-12.93963 -0.0248,-2.2255 1.63588,-11.394056 0.3181,-13.050376 -1.31777,-1.656326 -2.25696,0.307198 -4.07502,-2.475123 -1.81806,-2.782319 -3.74446,-3.054514 -4.06468,-6.652259 -0.32021,-3.597741 -4.26676,-7.211203 -4.94787,-7.453776 -0.68116,-0.24257 -13.69615,-7.979096 -18.29134,-0.392144 -4.59518,7.586955 -3.41344,13.27529 -3.41344,13.27529 z"
         id="path147" /><path
         id="path148"
         style="display:inline;fill:url(#linearGradient153);fill-opacity:1;stroke:none;stroke-width:0.298365;stroke-opacity:1"
         d="m 74.761341,89.680405 c -4.898167,0.350968 -11.515661,2.701354 -7.925508,9.006721 1.342921,2.358564 0.972601,7.640234 1.329903,11.194134 0.423237,4.20971 0.49792,8.88598 -1.471445,11.12547 -1.969357,2.23948 -3.268826,2.57287 -3.507735,4.74751 -0.238919,2.17467 1.039027,2.34458 1.386926,2.29387 0.347888,-0.0507 4.773008,0.76151 5.575558,-0.12077 0.802548,-0.88213 0.985319,-2.85102 2.033214,-3.32516 1.047886,-0.47416 0.778819,-0.44158 1.512194,-1.25866 0.733373,-0.81706 1.566342,-11.14478 1.534397,-13.7737 -0.03199,-2.62891 6.728316,-13.021633 5.305716,-14.984554 -1.4226,-1.962935 -1.804428,-1.086696 -3.768262,-4.38209 -0.09333,-0.156621 -0.1592,-0.257859 -0.248483,-0.404756 -0.195946,-0.03629 -0.397687,-0.06745 -0.606678,-0.09116 -0.397888,-0.04518 -0.781259,-0.05329 -1.149805,-0.02689 z" /><path
         id="path149"
         style="fill:#794223;fill-opacity:1;stroke:none;stroke-width:0.264583;stroke-opacity:1"
         d="m 45.640956,67.974508 v 5.140848 h 2.468066 v -5.140848 z m 13.807426,0.165881 v 5.140332 h 2.468066 V 68.140389 Z M 52.77127,79.374923 c -2.664071,0.01992 -4.614036,2.232698 -4.614036,2.232698 0.721943,1.296003 1.368163,2.926284 2.822301,4.087894 1.156657,0.654691 2.409651,0.825204 3.811766,-0.117923 0.941469,-1.13452 1.782436,-2.528788 2.566769,-3.831242 0,0 -1.922726,-2.391357 -4.5868,-2.371431 z" /></g><g
       id="g163"
       style="display:inline"
       transform="matrix(0.21270165,0,0,0.22344517,167.07341,-8.24045)"><path
         id="path153"
         style="fill:url(#linearGradient163);stroke:none;stroke-width:0.264583;stroke-opacity:1"
         d="m 168.45832,39.505417 c -0.12526,10e-4 -0.23064,0.08475 -0.30985,0.263766 -0.84495,1.909502 -4.83831,4.503333 -11.7426,9.050839 -6.90427,4.547505 -8.82615,4.003991 -19.55794,15.415745 -5.10253,5.425832 -8.46785,7.840002 -10.69908,8.929855 -0.48299,-0.159384 -0.94172,-0.457756 -1.00354,-0.76831 -0.0438,1.64357 -1.65586,0.520747 -2.19677,1.238175 l -1.31463,-0.775988 c -0.5392,1.63541 -1.63427,0.411808 -2.19776,1.092384 l -2.25318,-0.602329 c -0.17957,0.920397 -0.72537,1.16436 -1.25449,1.439811 l 4.28339,5.160167 0.62571,0.692654 c -0.0348,0.743044 -0.003,1.199838 0.15485,1.031892 0.0791,-0.08435 0.27755,-0.166841 0.55189,-0.249526 l 5.44605,6.030444 c -0.26239,-0.701714 1.23096,-4.665048 1.85007,-5.201578 -0.29863,-0.477155 -0.74041,-1.368473 -0.93241,-2.159788 1.51898,-0.362661 3.02084,-0.80468 4.18518,-1.394973 3.62571,-1.838105 6.77311,-1.478801 20.51613,-6.34198 13.74305,-4.863178 18.51173,-15.463674 19.35944,-20.531323 0.76822,-4.592558 -2.29962,-12.330592 -3.51046,-12.319937 z m -39.61788,42.748001 c 0.24886,0.397666 0.39841,0.507643 0.2194,0.03055 -0.0434,-0.116111 -0.12064,-0.116145 -0.2194,-0.03055 z m -1.85007,5.201578 c 0.0198,0.05321 0.0501,0.08799 0.0913,0.100725 z m -1.84506,-15.057684 c 0.002,-0.04921 6.2e-4,-0.100248 -3.3e-4,-0.154633 -0.0137,0.05151 -0.0108,0.103035 3.3e-4,0.154633 z" /><path
         id="path154"
         style="fill:url(#linearGradient164);fill-opacity:0.99308;stroke:none;stroke-width:0.298365;stroke-opacity:1"
         d="m 72.108779,89.308763 c -4.779034,-1.080672 -6.634568,-0.536796 -6.986594,6.627352 2.136613,1.749383 1.623152,10.617345 1.284931,14.106855 -0.408156,4.21104 0.458774,8.46262 -2.131704,10.02753 -2.590465,1.56489 -3.593868,1.1486 -4.514837,3.15166 -0.92098,2.00306 1.074533,2.98513 2.308969,2.95638 1.234435,-0.0287 4.087379,-1.14271 5.168751,-1.69258 1.335801,-0.67926 0.80213,-1.29617 1.942082,-1.50188 1.310285,-0.23643 0.84802,-0.54883 1.807304,-1.1155 0.959279,-0.56665 1.440993,-7.56766 2.248697,-10.08181 0.807696,-2.51415 3.539212,-13.855274 2.809535,-16.136601 -0.729673,-2.281342 -1.372857,-1.556743 -2.193417,-5.264059 -0.039,-0.176197 -0.06948,-0.291689 -0.107717,-0.457451 -0.175111,-0.09124 -0.357424,-0.179165 -0.54898,-0.262165 -0.364716,-0.158005 -0.727422,-0.276484 -1.087002,-0.357798 z" /><path
         style="display:inline;fill:url(#linearGradient165);fill-opacity:1;stroke:none;stroke-width:0.264583;stroke-opacity:1"
         d="m 88.362857,91.581638 c 0.86343,1.11578 -0.57561,5.505843 7.05501,9.078992 7.630623,3.57315 10.899833,4.4764 14.110003,4.44319 3.21018,-0.0332 6.34163,3.49521 6.59254,7.06836 0.25091,3.57315 1.06924,9.93688 -1.28913,11.09687 -2.41022,1.18549 -2.83969,1.58322 -3.13487,3.41629 -0.29519,1.83307 1.09212,1.5973 1.41683,1.56409 0.32471,-0.0332 5.30075,0.27458 6.07562,-0.44938 0.77487,-0.72393 0.68971,-1.64151 1.6786,-2.01344 0.98888,-0.37193 0.73797,-0.352 1.44642,-1.0228 0.70845,-0.67079 0.31544,-10.43316 0.37448,-12.65807 0.059,-2.22492 -0.032,-12.195639 -1.28653,-13.895869 -1.25455,-1.700237 -1.6383,-0.96967 -3.35039,-3.812249 -1.71209,-2.84258 -2.66407,-3.725905 -2.84857,-7.332263 -0.18449,-3.606358 -3.99242,-7.352189 -4.66397,-7.617852 -0.67156,-0.26566 -13.386803,-8.441401 -18.264793,-1.016156 -4.87799,7.425246 -3.91125,13.150257 -3.91125,13.150257 z"
         id="path155" /><path
         style="display:inline;fill:#c66b3c;fill-opacity:0.99308;stroke:none;stroke-width:0.264583"
         d="m 79.518181,70.096816 c 0,0 1.928068,1.054412 2.073698,1.500989 0.296469,0.909127 2.795065,0.384184 2.885467,-0.06642 -0.418639,0.541116 -1.330761,0.971828 -0.110697,1.879558 0.53625,0.941131 1.42783,0.66551 2.361507,0.245737 -0.511585,1.362346 0.329857,1.883699 1.151236,2.417522 2.958125,0.29617 8.837443,-0.677388 8.770119,-0.834477 0.20768,0.299983 4.163969,0.855475 6.018669,0.588329 8.38719,-1.208067 16.17062,-1.026772 23.10602,-0.796575 2.75514,5.517113 2.22449,11.646773 2.37258,17.649901 0.39101,0.0144 -2.42423,10.20474 -3.06627,10.67629 -0.64203,0.47155 -5.51474,2.23607 -6.30227,2.00574 -0.45919,-0.1343 -10.47802,-5.01343 -12.22449,-4.93467 -1.04413,0.0471 -16.738468,0.51188 -17.168897,0.88997 -0.511807,0.44957 -10.272556,0.25902 -11.084324,-0.0465 -0.811768,-0.30551 -10.187168,2.15744 -9.942085,1.74758 0.640577,-1.07127 -5.133404,-5.963149 -6.028789,-6.138838 -0.422123,-0.08283 -0.389827,-4.252336 -0.338289,-6.188723 0.01863,-0.699954 -0.956075,-1.8192 -1.003638,-1.567405 0.410563,-0.05311 0.747669,-0.298715 0.922461,-0.969666 l -2.22129,-0.889966 c 0,0 -1.78589,-2.477296 -1.173375,-3.692699 0.612516,-1.215401 21.002657,-13.475692 21.002657,-13.475692 z"
         id="path156" /><path
         style="fill:#e9c6b4;fill-opacity:0.99308;stroke:none;stroke-width:0.264583;stroke-opacity:1"
         d="m 85.402792,99.392069 8.080782,-2.125294 7.158316,0.09962 6.89265,-1.188836 9.03277,2.835939 0.65679,3.486812 -6.67863,-0.75713 -5.02559,0.41177 -1.9261,-0.90989 -6.91479,1.26853 -5.372428,-0.67743 c 0,0 -4.302374,1.3748 -4.826331,1.10913 -0.52396,-0.26566 -3.195415,-1.14234 -3.195415,-1.14234 z"
         id="path157" /><path
         style="fill:#f6ece7;fill-opacity:1;stroke:none;stroke-width:0.264583;stroke-opacity:1"
         d="m 61.970626,92.43118 c 1.83682,-2.949262 6.204457,-4.29652 6.204457,-4.29652 l 2.473447,-3.306183 4.320707,-2.808375 4.049355,-4.480253 3.652771,-0.695047 1.79563,-3.008677 0.174176,-1.479108 c -0.324171,-0.900824 -0.422251,-1.84404 -0.329929,-2.822957 0,0 -3.382769,-0.98289 -3.967212,-1.020461 -0.584444,-0.03757 -13.410888,8.772652 -14.621518,9.60859 -1.210633,0.835938 -4.477253,5.795211 -5.343483,6.556007 -0.866227,0.760799 -2.150758,1.591082 -2.150758,1.591082 l -0.09309,3.246086 2.298684,0.63944 0.146047,1.357415 z"
         id="path158" /><path
         style="display:inline;fill:#cc7443;fill-opacity:1;stroke-width:0.264583"
         d="m 58.122014,53.648455 1.239485,-14.808831 5.808537,3.006664 7.298135,12.389945 2.420545,7.744039 8.1841,6.887281 c 0,0 -7.626046,6.421965 -8.412871,7.149251 -0.785385,0.725955 -7.216886,9.803757 -7.154629,9.866014 -4.365023,1.088339 -8.690132,1.298575 -13.095069,3.265016 -1.828085,-1.622073 -4.634609,-2.657083 -6.951914,-3.985625 L 40.418088,76.2559 c -1.250117,-2.124299 -2.999661,-3.495073 -4.914885,-4.615873 0,0 7.529402,-6.043391 7.55154,-6.840374 0.02215,-0.796986 0.585446,-8.639411 0.585446,-8.639411 l -0.812707,-17.023094 3.870741,4.004016 8.678539,10.805792 1.510995,0.919855 c 0.674679,-0.374173 0.710053,-0.658873 1.234257,-1.218356 z"
         id="path159" /><path
         id="path160"
         style="fill:#dca191;fill-opacity:1;stroke:none;stroke-width:0.264583;stroke-opacity:1"
         d="m 59.447885,40.477992 -0.8446,13.505731 0.468831,0.85506 c 0,0 1.084654,-0.398398 1.401982,-0.710551 0.317328,-0.312153 2.583305,0.863513 2.583305,0.863513 l 2.50889,-1.574064 -2.401596,-4.559038 -1.332543,-4.785611 -1.350058,-0.542198 c 0,0 0.658667,-2.166511 -1.034211,-3.052842 z m -16.194997,0.691753 0.727043,14.941052 0.876515,-0.06072 1.064535,-0.934826 c 0,0 1.847155,0.718761 2.248958,0.831474 0.401804,0.112708 1.79524,-1.047482 1.79524,-1.047482 L 48.681536,51.447774 45.597487,47.728105 45.201951,45.676729 44.232307,44.52508 Z" /><path
         style="display:inline;fill:url(#linearGradient166);fill-opacity:1;stroke:none;stroke-width:0.264583;stroke-opacity:1"
         d="m 104.19882,91.671603 c 0.75093,1.187228 -1.10981,5.431257 6.13962,9.662967 7.2494,4.23173 11.42843,4.96168 14.62798,5.21215 3.19958,0.2505 4.71396,1.85518 4.6155,5.43508 -0.0985,3.57989 0.32444,9.29112 -1.7506,10.95473 -2.07509,1.66359 -3.56594,2.09394 -4.03851,3.89303 -0.47254,1.79911 1.65666,2.01597 1.9832,2.01159 0.32655,-0.004 3.84245,0.46068 4.68455,-0.19178 0.84209,-0.65236 0.98216,-1.63829 2.00305,-1.92128 1.02086,-0.28297 0.9379,-0.94049 1.70869,-1.54583 0.77077,-0.60532 1.68006,-10.47645 1.95574,-12.68655 0.27565,-2.21011 3.15953,-11.09972 2.07612,-12.903424 -1.0834,-1.803709 -2.27972,0.02874 -3.70735,-2.952801 -1.42764,-2.981537 -3.30136,-3.486982 -3.13355,-7.094082 0.16782,-3.607094 -3.25855,-7.673101 -3.9013,-7.996932 -0.64279,-0.323833 -12.50626,-9.587383 -18.08696,-2.625022 -5.5807,6.962366 -5.17618,12.748065 -5.17618,12.748065 z"
         id="path161" /><path
         id="path162"
         style="display:inline;fill:url(#linearGradient167);fill-opacity:1;stroke:none;stroke-width:0.298365;stroke-opacity:1"
         d="m 80.123929,90.346526 c -4.898548,0.346111 -11.51861,2.689934 -7.935359,8.998861 1.340339,2.359893 1.213467,7.626683 1.317654,11.195443 0.126519,4.33372 0.488198,8.88647 -1.483617,11.124 -1.971805,2.23753 -3.27164,2.56963 -3.512927,4.74403 -0.2413,2.17444 1.068915,2.531 1.41687,2.48063 0.347942,-0.0503 4.739716,0.58086 5.543232,-0.30063 0.803513,-0.88133 0.988435,-2.85004 2.036849,-3.32313 1.048404,-0.47312 0.779304,-0.44081 1.513572,-1.25716 0.734265,-0.81633 1.578534,-11.14322 1.549467,-13.77218 -0.02911,-2.62893 6.742561,-13.014951 5.322109,-14.979282 -1.420451,-1.964344 -1.803238,-1.088484 -3.763464,-4.385824 -0.09316,-0.156714 -0.158918,-0.258016 -0.248041,-0.405002 -0.195905,-0.03649 -0.397613,-0.06784 -0.606576,-0.09177 -0.39784,-0.04557 -0.781201,-0.05406 -1.149775,-0.02803 z" /><path
         id="path163"
         style="fill:#794223;fill-opacity:1;stroke:none;stroke-width:0.264583;stroke-opacity:1"
         d="m 45.640956,69.333947 v 5.140848 h 2.468066 v -5.140848 z m 13.807426,0.165881 v 5.140332 h 2.468066 V 69.499828 Z M 52.77127,80.734362 c -2.664071,0.01992 -4.614036,2.232698 -4.614036,2.232698 0.721943,1.296003 1.368163,2.926284 2.822301,4.087894 1.156657,0.654691 2.409651,0.825204 3.811766,-0.117923 0.941469,-1.13452 1.782436,-2.528788 2.566769,-3.831242 0,0 -1.922726,-2.391357 -4.5868,-2.371431 z" /></g></g></svg>
